<svg width="30" height="30" viewBox="0 0 30 30" fill="none" xmlns="http://www.w3.org/2000/svg">
<g clip-path="url(#clip0_7754_57183)">
<path d="M15 30C23.2843 30 30 23.2843 30 15C30 6.71573 23.2843 0 15 0C6.71573 0 0 6.71573 0 15C0 23.2843 6.71573 30 15 30Z" fill="#F0F0F0"/>
<path d="M0 15.0004C0 20.686 3.16342 25.6324 7.82607 28.1765V1.82422C3.16342 4.3683 0 9.31473 0 15.0004Z" fill="#F0F0F0"/>
<path d="M14.9981 0C12.3995 0 9.95533 0.661113 7.82422 1.82385V28.1761C9.95533 29.3389 12.3995 30 14.9981 30C23.2824 30 29.9981 23.2842 29.9981 15C29.9981 6.71578 23.2824 0 14.9981 0Z" fill="#496E2D"/>
<path d="M21.4165 17.4801C19.5189 18.8512 16.8689 18.4244 15.4978 16.5268C14.1266 14.6291 14.5535 11.9792 16.4511 10.6081C17.0428 10.1806 17.7076 9.92788 18.384 9.84005C17.0828 9.64546 15.7073 9.93866 14.5567 10.7701C12.2211 12.4577 11.6957 15.7191 13.3833 18.0547C15.0708 20.3902 18.3323 20.9157 20.6679 19.2279C21.8187 18.3966 22.5289 17.1829 22.7526 15.8863C22.4569 16.5007 22.0083 17.0525 21.4165 17.4801Z" fill="#F0F0F0"/>
<path d="M21.336 9.78223L22.405 10.9342L23.831 10.2738L23.0655 11.6463L24.1345 12.7984L22.5925 12.4946L21.8272 13.8672L21.6396 12.3069L20.0977 12.003L21.5237 11.3426L21.336 9.78223Z" fill="#F0F0F0"/>
</g>
<defs>
<clipPath id="clip0_7754_57183">
<rect width="30" height="30" fill="white"/>
</clipPath>
</defs>
</svg>
