<svg width="30" height="30" viewBox="0 0 30 30" fill="none" xmlns="http://www.w3.org/2000/svg">
<g clip-path="url(#clip0_6380_44393)">
<path d="M15 30C23.2843 30 30 23.2843 30 15C30 6.71573 23.2843 0 15 0C6.71573 0 0 6.71573 0 15C0 23.2843 6.71573 30 15 30Z" fill="#F0F0F0"/>
<path d="M8.47656 20.2178L9.78092 29.0675C11.4058 29.6705 13.1635 30.0004 14.9983 30.0004C21.4477 30.0004 26.9459 25.9298 29.0652 20.2178H8.47656Z" fill="black"/>
<path d="M8.47656 9.78264L9.78092 0.932871C11.4058 0.329883 13.1635 0 14.9983 0C21.4477 0 26.9459 4.07062 29.0652 9.78264H8.47656Z" fill="#6DA544"/>
<path d="M0 14.9996C0 21.4491 4.07068 26.9472 9.78264 29.0666V0.932617C4.07068 3.05201 0 8.55016 0 14.9996Z" fill="#A2001D"/>
</g>
<defs>
<clipPath id="clip0_6380_44393">
<rect width="30" height="30" fill="white"/>
</clipPath>
</defs>
</svg>
