<svg width="30" height="30" viewBox="0 0 30 30" fill="none" xmlns="http://www.w3.org/2000/svg">
<g clip-path="url(#clip0_7754_57158)">
<path d="M15 30C23.2843 30 30 23.2843 30 15C30 6.71573 23.2843 0 15 0C6.71573 0 0 6.71573 0 15C0 23.2843 6.71573 30 15 30Z" fill="#F0F0F0"/>
<path d="M0 15.0001C0 6.71578 6.71578 0 15 0C23.2842 0 30 6.71578 30 15.0001" fill="#D80027"/>
<path d="M9.12844 7.8259C9.12844 5.64047 10.6644 3.8148 12.7154 3.36686C12.4001 3.29807 12.0731 3.26074 11.7371 3.26074C9.21574 3.26074 7.17188 5.30461 7.17188 7.82596C7.17188 10.3473 9.21574 12.3912 11.7371 12.3912C12.073 12.3912 12.4001 12.3538 12.7154 12.285C10.6644 11.8371 9.12844 10.0114 9.12844 7.8259Z" fill="#F0F0F0"/>
<path d="M14.9964 3.58691L15.3202 4.5833H16.368L15.5203 5.19918L15.8441 6.19557L14.9964 5.5798L14.1488 6.19557L14.4726 5.19918L13.625 4.5833H14.6727L14.9964 3.58691Z" fill="#F0F0F0"/>
<path d="M12.4575 5.54297L12.7812 6.53941H13.8289L12.9813 7.15523L13.3051 8.15162L12.4575 7.53586L11.6098 8.15162L11.9336 7.15523L11.0859 6.53941H12.1337L12.4575 5.54297Z" fill="#F0F0F0"/>
<path d="M17.5394 5.54297L17.8633 6.53941H18.9109L18.0632 7.15523L18.3871 8.15162L17.5394 7.53586L16.6918 8.15162L17.0156 7.15523L16.168 6.53941H17.2156L17.5394 5.54297Z" fill="#F0F0F0"/>
<path d="M16.5629 8.47852L16.8866 9.47496H17.9343L17.0867 10.0908L17.4105 11.0872L16.5629 10.4714L15.7152 11.0872L16.039 10.0908L15.1914 9.47496H16.239L16.5629 8.47852Z" fill="#F0F0F0"/>
<path d="M13.434 8.47852L13.7577 9.47496H14.8055L13.9578 10.0908L14.2817 11.0872L13.434 10.4714L12.5863 11.0872L12.9101 10.0908L12.0625 9.47496H13.1102L13.434 8.47852Z" fill="#F0F0F0"/>
</g>
<defs>
<clipPath id="clip0_7754_57158">
<rect width="30" height="30" fill="white"/>
</clipPath>
</defs>
</svg>
