<?xml version="1.0" encoding="UTF-8"?>
<svg xmlns="http://www.w3.org/2000/svg" width="143" height="27" viewBox="0 0 143 27" fill="none">
  <path d="M30.8315 20.8608L35.9273 6.92689H38.5947L43.6906 20.8608H41.1625L37.2411 9.71368L33.3197 20.8608H30.8315ZM33.1007 17.5764L33.7377 15.6854H40.6052L41.2422 17.5764H33.1007ZM44.612 20.8608V6.92689H47.4386L51.8974 15.9242L56.3165 6.92689H59.163V20.8608H56.7743V11.0274L52.833 18.9101H50.9619L47.0006 11.0474V20.8608H44.612ZM60.9952 20.8608V6.92689H63.3839V18.9897H69.5945V20.8608H60.9952Z" fill="#0A2540"></path>
  <path d="M76.1323 20.8608L72.2706 6.92689H73.7635L76.9484 19.149L80.5115 6.92689H82.0642L85.5278 19.1689L88.7326 6.92689H90.2255L86.3041 20.8608H84.7315L81.2281 8.97717L77.665 20.8608H76.1323ZM93.4732 21.0997C92.6637 21.0997 91.9869 20.9537 91.4429 20.6618C90.912 20.3698 90.5139 19.9916 90.2485 19.5272C89.9964 19.0627 89.8703 18.5518 89.8703 17.9944C89.8703 17.3044 90.0428 16.7205 90.3879 16.2427C90.7462 15.765 91.2438 15.4067 91.8808 15.1678C92.531 14.929 93.2742 14.8095 94.1102 14.8095H96.8174C96.8174 14.1593 96.7179 13.6085 96.5188 13.1574C96.3197 12.7062 96.0278 12.3678 95.6429 12.1422C95.2714 11.9033 94.7936 11.7839 94.2097 11.7839C93.5197 11.7839 92.9291 11.9564 92.4381 12.3014C91.9471 12.6464 91.6419 13.1507 91.5225 13.8142H90.0694C90.149 13.1109 90.3879 12.5204 90.786 12.0426C91.1974 11.5649 91.7016 11.2066 92.2988 10.9677C92.9092 10.7156 93.5462 10.5895 94.2097 10.5895C95.1254 10.5895 95.8752 10.7687 96.4591 11.127C97.0562 11.472 97.4942 11.9497 97.7728 12.5602C98.0648 13.1706 98.2108 13.874 98.2108 14.6702V20.8608H96.9368L96.8771 19.0295C96.7444 19.3082 96.5719 19.5736 96.3595 19.8257C96.1605 20.0779 95.9216 20.2968 95.6429 20.4826C95.3775 20.6684 95.0657 20.8144 94.7074 20.9206C94.3491 21.04 93.9377 21.0997 93.4732 21.0997ZM93.6325 19.8656C94.1368 19.8656 94.5813 19.766 94.9662 19.567C95.351 19.3679 95.6828 19.1025 95.9614 18.7707C96.2401 18.439 96.4524 18.0608 96.5984 17.6361C96.7444 17.2115 96.8174 16.7802 96.8174 16.3423V15.984H94.2097C93.5064 15.984 92.9424 16.0702 92.5178 16.2427C92.0931 16.4152 91.7879 16.6475 91.6021 16.9394C91.4163 17.2314 91.3234 17.5698 91.3234 17.9546C91.3234 18.3395 91.4097 18.6779 91.5822 18.9698C91.768 19.2485 92.0334 19.4674 92.3784 19.6267C92.7235 19.7859 93.1415 19.8656 93.6325 19.8656ZM103.339 20.8608C102.768 20.8608 102.277 20.7746 101.866 20.6021C101.455 20.4163 101.136 20.1177 100.91 19.7063C100.698 19.2817 100.592 18.7044 100.592 17.9745V12.0227H98.8403V10.8284H100.592L100.791 8.49943H101.985V10.8483H104.991V12.0227H101.985V17.9745C101.985 18.638 102.118 19.0892 102.383 19.3281C102.649 19.5537 103.12 19.6665 103.797 19.6665H104.832V20.8608H103.339ZM110.309 21.0997C109.393 21.0997 108.564 20.8807 107.821 20.4428C107.091 20.0049 106.513 19.3945 106.089 18.6115C105.664 17.8153 105.452 16.8996 105.452 15.8645C105.452 14.7896 105.664 13.8673 106.089 13.0976C106.513 12.3147 107.091 11.7042 107.821 11.2663C108.564 10.8151 109.393 10.5895 110.309 10.5895C111.477 10.5895 112.445 10.8947 113.215 11.5052C113.998 12.1024 114.496 12.8986 114.708 13.8939H113.314C113.169 13.2303 112.817 12.7194 112.259 12.3611C111.715 11.9896 111.065 11.8038 110.309 11.8038C109.698 11.8038 109.134 11.9564 108.617 12.2616C108.099 12.5535 107.681 12.9981 107.363 13.5953C107.044 14.1924 106.885 14.9489 106.885 15.8645C106.885 16.5413 106.978 17.1318 107.164 17.6361C107.349 18.1404 107.602 18.5651 107.92 18.9101C108.252 19.2418 108.617 19.494 109.015 19.6665C109.426 19.839 109.858 19.9253 110.309 19.9253C110.8 19.9253 111.251 19.8457 111.662 19.6864C112.087 19.5139 112.445 19.2684 112.737 18.9499C113.029 18.6314 113.222 18.2466 113.314 17.7954H114.708C114.509 18.7641 114.018 19.5603 113.235 20.184C112.452 20.7945 111.477 21.0997 110.309 21.0997ZM116.111 20.8608V6.52877H117.504V12.6199C117.849 11.9829 118.327 11.4853 118.937 11.127C119.561 10.7687 120.231 10.5895 120.948 10.5895C121.704 10.5895 122.361 10.7421 122.919 11.0474C123.489 11.3526 123.927 11.817 124.232 12.4408C124.551 13.0645 124.71 13.8607 124.71 14.8294V20.8608H123.337V14.9887C123.337 13.9138 123.111 13.1175 122.66 12.6C122.222 12.0692 121.572 11.8038 120.709 11.8038C120.112 11.8038 119.568 11.9497 119.077 12.2417C118.599 12.5336 118.214 12.9583 117.922 13.5157C117.644 14.0597 117.504 14.7365 117.504 15.546V20.8608H116.111ZM130.651 21.0997C129.722 21.0997 128.899 20.8807 128.183 20.4428C127.479 20.0049 126.922 19.3945 126.511 18.6115C126.112 17.8153 125.913 16.8863 125.913 15.8247C125.913 14.7631 126.112 13.8408 126.511 13.0578C126.909 12.2749 127.466 11.6711 128.183 11.2464C128.912 10.8085 129.749 10.5895 130.691 10.5895C131.659 10.5895 132.482 10.8085 133.159 11.2464C133.836 11.6843 134.347 12.255 134.692 12.9583C135.05 13.6616 135.229 14.4313 135.229 15.2674C135.229 15.4001 135.229 15.5394 135.229 15.6854C135.229 15.8181 135.223 15.9773 135.209 16.1631H126.968V14.9887H133.876C133.836 13.9669 133.511 13.1773 132.9 12.6199C132.303 12.0625 131.547 11.7839 130.631 11.7839C130.047 11.7839 129.496 11.9232 128.979 12.2019C128.461 12.4673 128.043 12.8654 127.725 13.3962C127.42 13.9138 127.267 14.5707 127.267 15.3669V15.8844C127.267 16.7868 127.426 17.5366 127.745 18.1338C128.076 18.7309 128.501 19.1755 129.019 19.4674C129.536 19.7594 130.08 19.9054 130.651 19.9054C131.407 19.9054 132.031 19.7395 132.522 19.4077C133.013 19.0627 133.365 18.5916 133.577 17.9944H134.951C134.791 18.5783 134.519 19.1091 134.134 19.5869C133.75 20.0513 133.265 20.4229 132.681 20.7016C132.097 20.967 131.421 21.0997 130.651 21.0997ZM136.495 20.8608V10.8284H137.769L137.868 12.7592C138.08 12.2948 138.366 11.9033 138.724 11.5848C139.082 11.2663 139.514 11.0208 140.018 10.8483C140.522 10.6758 141.093 10.5895 141.73 10.5895V12.0426H141.192C140.768 12.0426 140.356 12.1024 139.958 12.2218C139.56 12.328 139.208 12.5137 138.903 12.7791C138.598 13.0446 138.352 13.4029 138.167 13.8541C137.981 14.3052 137.888 14.8692 137.888 15.546V20.8608H136.495Z" fill="#0A2540"></path>
  <path d="M23.0051 17.1641V22.113L19.7655 25.3527H14.8165L23.0051 17.1641Z" fill="#645BFF"></path>
  <path d="M23.0046 8.61133V13.5594L11.2111 25.353H6.26294L23.0046 8.61133Z" fill="#645BFF"></path>
  <path d="M23.0049 2.34766V5.0662L3.44249 24.6286L2.71854 25.3526H0V11.3328L3.44249 7.89028V19.6805L20.7753 2.34766H23.0049Z" fill="#645BFF"></path>
  <path d="M17.2308 2.34766L11.6882 7.89028L8.24573 11.3328V6.38465L11.6882 2.94216L12.2827 2.34766H17.2308Z" fill="#645BFF"></path>
</svg>
