<?xml version="1.0" encoding="UTF-8"?>
<svg xmlns="http://www.w3.org/2000/svg" width="184" height="34" viewBox="0 0 184 34" fill="none">
  <path d="M39.6706 25.541L46.2274 7.61226H49.6595L56.2163 25.541H52.9635L47.9179 11.198L42.8722 25.541H39.6706ZM42.5905 21.315L43.4101 18.8818H52.2464L53.066 21.315H42.5905ZM57.4019 25.541V7.61226H61.0389L66.7761 19.1891L72.4621 7.61226H76.1246V25.541H73.0511V12.8884L67.9799 23.031H65.5723L60.4754 12.914V25.541H57.4019ZM78.4822 25.541V7.61226H81.5557V23.1334H89.5468V25.541H78.4822Z" fill="white"></path>
  <path d="M97.9591 25.541L92.9903 7.61226H94.9112L99.0092 23.3383L103.594 7.61226H105.592L110.048 23.364L114.172 7.61226H116.093L111.047 25.541H109.024L104.516 10.2504L99.9313 25.541H97.9591ZM120.272 25.8484C119.23 25.8484 118.359 25.6605 117.659 25.2849C116.976 24.9092 116.464 24.4226 116.122 23.825C115.798 23.2274 115.636 22.57 115.636 21.8528C115.636 20.9649 115.858 20.2136 116.302 19.5989C116.763 18.9842 117.403 18.5232 118.223 18.2158C119.059 17.9085 120.016 17.7548 121.091 17.7548H124.575C124.575 16.9181 124.446 16.2095 124.19 15.629C123.934 15.0484 123.559 14.613 123.063 14.3227C122.585 14.0154 121.971 13.8617 121.219 13.8617C120.331 13.8617 119.572 14.0837 118.94 14.5276C118.308 14.9716 117.915 15.6204 117.762 16.4742H115.892C115.994 15.5692 116.302 14.8094 116.814 14.1947C117.343 13.58 117.992 13.119 118.76 12.8116C119.546 12.4872 120.366 12.325 121.219 12.325C122.397 12.325 123.362 12.5555 124.114 13.0165C124.882 13.4605 125.445 14.0752 125.804 14.8606C126.18 15.6461 126.367 16.551 126.367 17.5755V25.541H124.728L124.651 23.1847C124.481 23.5432 124.259 23.8847 123.985 24.2092C123.729 24.5336 123.422 24.8153 123.063 25.0544C122.722 25.2934 122.321 25.4813 121.86 25.6179C121.399 25.7715 120.869 25.8484 120.272 25.8484ZM120.477 24.2604C121.125 24.2604 121.697 24.1323 122.193 23.8762C122.688 23.6201 123.115 23.2786 123.473 22.8517C123.832 22.4248 124.105 21.9382 124.293 21.3918C124.481 20.8454 124.575 20.2905 124.575 19.727V19.266H121.219C120.314 19.266 119.589 19.3769 119.042 19.5989C118.496 19.8209 118.103 20.1197 117.864 20.4954C117.625 20.871 117.505 21.3064 117.505 21.8016C117.505 22.2968 117.616 22.7322 117.838 23.1078C118.077 23.4664 118.419 23.7481 118.863 23.953C119.307 24.1579 119.845 24.2604 120.477 24.2604ZM132.966 25.541C132.232 25.541 131.6 25.43 131.07 25.2081C130.541 24.969 130.131 24.5848 129.841 24.0555C129.568 23.5091 129.431 22.7663 129.431 21.8272V14.1691H127.177V12.6323H129.431L129.687 9.63565H131.224V12.6579H135.092V14.1691H131.224V21.8272C131.224 22.681 131.395 23.2615 131.736 23.5689C132.078 23.8591 132.684 24.0043 133.555 24.0043H134.887V25.541H132.966ZM141.934 25.8484C140.756 25.8484 139.688 25.5666 138.732 25.0032C137.793 24.4397 137.05 23.6542 136.504 22.6468C135.958 21.6223 135.684 20.4441 135.684 19.1123C135.684 17.7292 135.958 16.5425 136.504 15.5521C137.05 14.5447 137.793 13.7593 138.732 13.1958C139.688 12.6152 140.756 12.325 141.934 12.325C143.436 12.325 144.683 12.7177 145.673 13.5031C146.681 14.2715 147.321 15.296 147.594 16.5766H145.801C145.613 15.7229 145.161 15.0655 144.444 14.6045C143.744 14.1264 142.907 13.8873 141.934 13.8873C141.148 13.8873 140.423 14.0837 139.757 14.4764C139.091 14.8521 138.553 15.4241 138.143 16.1925C137.733 16.9608 137.528 17.9341 137.528 19.1123C137.528 19.9831 137.648 20.7429 137.887 21.3918C138.126 22.0406 138.45 22.587 138.86 23.031C139.287 23.4579 139.757 23.7823 140.269 24.0043C140.798 24.2262 141.353 24.3372 141.934 24.3372C142.566 24.3372 143.146 24.2348 143.675 24.0299C144.222 23.8079 144.683 23.492 145.059 23.0822C145.434 22.6724 145.682 22.1772 145.801 21.5967H147.594C147.338 22.8432 146.706 23.8677 145.699 24.6702C144.691 25.4556 143.436 25.8484 141.934 25.8484ZM149.399 25.541V7.10001H151.192V14.9374C151.636 14.1178 152.251 13.4775 153.036 13.0165C153.839 12.5555 154.701 12.325 155.623 12.325C156.596 12.325 157.442 12.5213 158.159 12.914C158.893 13.3068 159.456 13.9044 159.849 14.7069C160.259 15.5095 160.464 16.534 160.464 17.7804V25.541H158.697V17.9853C158.697 16.6023 158.406 15.5778 157.826 14.9118C157.262 14.2288 156.426 13.8873 155.316 13.8873C154.547 13.8873 153.847 14.0752 153.216 14.4508C152.601 14.8265 152.106 15.3729 151.73 16.09C151.371 16.7901 151.192 17.6609 151.192 18.7025V25.541H149.399ZM168.108 25.8484C166.913 25.8484 165.854 25.5666 164.932 25.0032C164.027 24.4397 163.31 23.6542 162.781 22.6468C162.268 21.6223 162.012 20.4271 162.012 19.0611C162.012 17.6951 162.268 16.5083 162.781 15.5009C163.293 14.4935 164.01 13.7166 164.932 13.1702C165.871 12.6067 166.947 12.325 168.159 12.325C169.406 12.325 170.464 12.6067 171.335 13.1702C172.206 13.7337 172.863 14.4679 173.307 15.3729C173.768 16.2778 173.999 17.2682 173.999 18.3439C173.999 18.5147 173.999 18.6939 173.999 18.8818C173.999 19.0525 173.99 19.2574 173.973 19.4965H163.37V17.9853H172.257C172.206 16.6706 171.788 15.6546 171.002 14.9374C170.234 14.2203 169.261 13.8617 168.082 13.8617C167.331 13.8617 166.622 14.041 165.957 14.3996C165.291 14.7411 164.753 15.2533 164.343 15.9363C163.95 16.6023 163.754 17.4475 163.754 18.472V19.1379C163.754 20.299 163.959 21.2637 164.369 22.0321C164.795 22.8005 165.342 23.3725 166.008 23.7481C166.674 24.1238 167.374 24.3116 168.108 24.3116C169.081 24.3116 169.884 24.0982 170.516 23.6713C171.147 23.2274 171.6 22.6212 171.873 21.8528H173.64C173.435 22.6041 173.085 23.2871 172.59 23.9018C172.095 24.4994 171.472 24.9775 170.72 25.3361C169.969 25.6776 169.098 25.8484 168.108 25.8484ZM175.627 25.541V12.6323H177.266L177.394 15.1167C177.668 14.5191 178.035 14.0154 178.496 13.6056C178.957 13.1958 179.512 12.8799 180.16 12.6579C180.809 12.4359 181.544 12.325 182.363 12.325V14.1947H181.672C181.125 14.1947 180.596 14.2715 180.084 14.4252C179.571 14.5618 179.119 14.8008 178.726 15.1423C178.333 15.4838 178.018 15.9449 177.779 16.5254C177.539 17.106 177.42 17.8317 177.42 18.7025V25.541H175.627Z" fill="white"></path>
  <path d="M29.6006 21.5181V27.8859L25.4321 32.0543H19.0643L29.6006 21.5181Z" fill="#645BFF"></path>
  <path d="M29.6 10.5127V16.8794L14.4253 32.0541H8.05859L29.6 10.5127Z" fill="#645BFF"></path>
  <path d="M29.6003 2.45361V5.95155L4.42944 31.1224L3.49793 32.054H0V14.0147L4.42944 9.58528V24.7557L26.7315 2.45361H29.6003Z" fill="#645BFF"></path>
  <path d="M22.1707 2.45361L15.0391 9.58528L10.6096 14.0147V7.648L15.0391 3.21855L15.804 2.45361H22.1707Z" fill="#645BFF"></path>
</svg>
