<svg width="19" height="19" viewBox="0 0 19 19" fill="none" xmlns="http://www.w3.org/2000/svg">
<path d="M4.32992 13.8296L12.8168 5.34342L6.53125 5.34342C6.37378 5.34342 6.22275 5.28086 6.1114 5.16952C6.00005 5.05817 5.9375 4.90714 5.9375 4.74967C5.9375 4.5922 6.00005 4.44117 6.1114 4.32983C6.22275 4.21848 6.37378 4.15592 6.53125 4.15592L14.25 4.15592C14.4075 4.15592 14.5585 4.21847 14.6698 4.32982C14.7812 4.44117 14.8437 4.5922 14.8437 4.74967L14.8437 12.4684C14.8437 12.6259 14.7812 12.7769 14.6698 12.8883C14.5585 12.9996 14.4075 13.0622 14.25 13.0622C14.0925 13.0622 13.9415 12.9996 13.8302 12.8883C13.7188 12.7769 13.6562 12.6259 13.6562 12.4684L13.6562 6.18283L5.17008 14.6697C5.11491 14.7249 5.04942 14.7687 4.97734 14.7985C4.90527 14.8284 4.82802 14.8438 4.75 14.8438C4.67198 14.8438 4.59473 14.8284 4.52266 14.7985C4.45058 14.7687 4.38509 14.7249 4.32992 14.6697C4.27476 14.6146 4.231 14.5491 4.20114 14.477C4.17129 14.4049 4.15592 14.3277 4.15592 14.2497C4.15592 14.1717 4.17129 14.0944 4.20114 14.0223C4.231 13.9502 4.27476 13.8848 4.32992 13.8296Z" fill="#645BFF"/>
</svg>
