<svg width="1440" height="765" viewBox="0 0 1440 765" fill="none" xmlns="http://www.w3.org/2000/svg">
<g clip-path="url(#clip0_4558_20135)">
<rect width="1440" height="765" fill="#0A2540"/>
<g opacity="0.15">
<mask id="path-2-inside-1_4558_20135" fill="white">
<path d="M845.234 -373L1175.35 -47.3013L41.1175 1102.33L-289.001 776.627L845.234 -373Z"/>
</mask>
<path d="M845.234 -373L1175.35 -47.3013L41.1175 1102.33L-289.001 776.627L845.234 -373Z" fill="url(#paint0_linear_4558_20135)" fill-opacity="0.8"/>
<path d="M-288.289 777.33L845.946 -372.298L844.523 -373.702L-289.713 775.925L-288.289 777.33Z" fill="url(#paint1_linear_4558_20135)" fill-opacity="0.5" mask="url(#path-2-inside-1_4558_20135)"/>
<mask id="path-4-inside-2_4558_20135" fill="white">
<path d="M1045.23 -336L1375.35 -10.3013L241.117 1139.33L-89.001 813.627L1045.23 -336Z"/>
</mask>
<path d="M1045.23 -336L1375.35 -10.3013L241.117 1139.33L-89.001 813.627L1045.23 -336Z" fill="url(#paint2_linear_4558_20135)" fill-opacity="0.5"/>
<path d="M-88.2891 814.33L1045.95 -335.298L1044.52 -336.702L-89.7129 812.925L-88.2891 814.33Z" fill="url(#paint3_linear_4558_20135)" fill-opacity="0.5" mask="url(#path-4-inside-2_4558_20135)"/>
</g>
<g filter="url(#filter0_f_4558_20135)">
<circle cx="169.5" cy="365.5" r="274.5" fill="#645BFF" fill-opacity="0.3"/>
</g>
<g filter="url(#filter1_f_4558_20135)">
<circle cx="1195.5" cy="440.5" r="274.5" fill="#645BFF" fill-opacity="0.31"/>
</g>
</g>
<defs>
<filter id="filter0_f_4558_20135" x="-536.152" y="-340.152" width="1411.3" height="1411.3" filterUnits="userSpaceOnUse" color-interpolation-filters="sRGB">
<feFlood flood-opacity="0" result="BackgroundImageFix"/>
<feBlend mode="normal" in="SourceGraphic" in2="BackgroundImageFix" result="shape"/>
<feGaussianBlur stdDeviation="215.576" result="effect1_foregroundBlur_4558_20135"/>
</filter>
<filter id="filter1_f_4558_20135" x="489.848" y="-265.152" width="1411.3" height="1411.3" filterUnits="userSpaceOnUse" color-interpolation-filters="sRGB">
<feFlood flood-opacity="0" result="BackgroundImageFix"/>
<feBlend mode="normal" in="SourceGraphic" in2="BackgroundImageFix" result="shape"/>
<feGaussianBlur stdDeviation="215.576" result="effect1_foregroundBlur_4558_20135"/>
</filter>
<linearGradient id="paint0_linear_4558_20135" x1="1243" y1="-631" x2="-123.942" y2="939.477" gradientUnits="userSpaceOnUse">
<stop stop-color="#645BFF"/>
<stop offset="1" stop-color="#645BFF" stop-opacity="0"/>
</linearGradient>
<linearGradient id="paint1_linear_4558_20135" x1="928.072" y1="-456.961" x2="280.889" y2="-630.029" gradientUnits="userSpaceOnUse">
<stop stop-color="#4070F4"/>
<stop offset="0.5" stop-color="#5BB1EC"/>
<stop offset="1" stop-color="#645BFF"/>
</linearGradient>
<linearGradient id="paint2_linear_4558_20135" x1="1210.29" y1="-173.151" x2="76.0583" y2="976.477" gradientUnits="userSpaceOnUse">
<stop stop-color="#645BFF"/>
<stop offset="1" stop-color="#645BFF" stop-opacity="0"/>
</linearGradient>
<linearGradient id="paint3_linear_4558_20135" x1="1128.07" y1="-419.961" x2="480.889" y2="-593.029" gradientUnits="userSpaceOnUse">
<stop stop-color="#4070F4"/>
<stop offset="0.5" stop-color="#5BB1EC"/>
<stop offset="1" stop-color="#645BFF"/>
</linearGradient>
<clipPath id="clip0_4558_20135">
<rect width="1440" height="765" fill="white"/>
</clipPath>
</defs>
</svg>
