<svg width="14" height="15" viewBox="0 0 14 15" fill="none" xmlns="http://www.w3.org/2000/svg">
<path d="M7.65773 0.671127C7.23155 0.469 6.73712 0.468999 6.31094 0.671126C6.00476 0.816342 5.79631 1.08695 5.62348 1.36596C5.44939 1.647 5.25962 2.02655 5.02836 2.48908L4.52309 3.49963C4.35926 3.82729 4.322 3.88953 4.28039 3.93308C4.23215 3.98357 4.1743 4.02391 4.11025 4.05172C4.055 4.07571 3.98372 4.08915 3.61962 4.12961L2.73539 4.22785C2.17951 4.28961 1.72644 4.33994 1.38132 4.41014C1.04247 4.47906 0.69667 4.58582 0.44919 4.83831C0.108486 5.18591 -0.0519097 5.67178 0.0148782 6.15391C0.0633915 6.50411 0.27767 6.79576 0.50889 7.05288C0.744381 7.31475 1.07843 7.62493 1.48828 8.00549L2.22245 8.68722C2.54316 8.98502 2.60174 9.0497 2.63371 9.11195C2.67089 9.18433 2.69069 9.26438 2.69154 9.34575C2.69228 9.41572 2.6706 9.50025 2.5257 9.91322L2.25005 10.6988C2.04334 11.2879 1.87642 11.7636 1.78137 12.1367C1.68955 12.497 1.62858 12.8845 1.76519 13.2324C1.95029 13.7039 2.35129 14.0572 2.84231 14.1815C3.20468 14.2732 3.5814 14.164 3.92732 14.0276C4.28543 13.8863 4.73632 13.6609 5.29472 13.3816L6.46898 12.7945C6.77099 12.6435 6.83261 12.618 6.88775 12.6076C6.95158 12.5957 7.01709 12.5957 7.08093 12.6076C7.13606 12.618 7.19768 12.6435 7.4997 12.7945L8.67394 13.3816C9.23234 13.6609 9.68324 13.8863 10.0413 14.0276C10.3873 14.164 10.764 14.2732 11.1264 14.1815C11.6174 14.0572 12.0184 13.7039 12.2035 13.2324C12.3401 12.8845 12.2791 12.497 12.1873 12.1367C12.0922 11.7636 11.9253 11.2879 11.7186 10.6989L11.443 9.91322C11.2981 9.50025 11.2764 9.41572 11.2771 9.34575C11.278 9.26438 11.2978 9.18433 11.335 9.11195C11.3669 9.0497 11.4255 8.98502 11.7462 8.68722L12.4804 8.0055C12.8902 7.62493 13.2243 7.31475 13.4598 7.05288C13.691 6.79576 13.9053 6.50411 13.9538 6.15391C14.0206 5.67178 13.8602 5.18591 13.5195 4.83831C13.272 4.58582 12.9262 4.47906 12.5873 4.41014C12.2422 4.33995 11.7892 4.28961 11.2333 4.22786L10.349 4.12961C9.98495 4.08915 9.91367 4.07571 9.85841 4.05172C9.79436 4.02391 9.73652 3.98357 9.68828 3.93308C9.64667 3.88953 9.60941 3.82729 9.44558 3.49963L8.9403 2.48907C8.70905 2.02655 8.51928 1.647 8.34519 1.36596C8.17236 1.08695 7.96391 0.816343 7.65773 0.671127Z" fill="white"/>
</svg>
