<svg width="117" height="32" viewBox="0 0 117 32" fill="none" xmlns="http://www.w3.org/2000/svg">
<path d="M46.7993 15.4531V5.65123H42.897V4.91378H51.5773V5.65123H47.6289V15.4531H46.7993ZM51.6623 15.4531V7.37194H52.2154L52.2922 8.77002H52.3844C52.4458 8.5242 52.5431 8.28351 52.6763 8.04793C52.8197 7.80212 53.0194 7.59727 53.2755 7.43339C53.5315 7.26952 53.8541 7.18758 54.2434 7.18758C54.3867 7.18758 54.5148 7.19782 54.6274 7.21831C54.7401 7.23879 54.822 7.25927 54.8733 7.27976V7.92502H54.4431C54.0641 7.92502 53.7415 8.00184 53.4752 8.15548C53.2191 8.30911 53.0092 8.51396 52.8453 8.77002C52.6916 9.02607 52.579 9.31286 52.5073 9.63037C52.4356 9.93764 52.3997 10.25 52.3997 10.5675V15.4531H51.6623ZM57.8865 15.6375C57.5178 15.6375 57.1747 15.5914 56.8572 15.4992C56.5499 15.4173 56.2785 15.2892 56.0429 15.1151C55.8176 14.9308 55.6384 14.7003 55.5052 14.4238C55.3823 14.1472 55.3208 13.8195 55.3208 13.4405C55.3208 12.8772 55.4642 12.4214 55.751 12.0732C56.0378 11.7249 56.4373 11.4586 56.9494 11.2743C57.4615 11.0797 58.0658 10.9516 58.7623 10.8902C59.4587 10.8185 60.2115 10.7826 61.0207 10.7826V9.56892C61.0207 9.20019 60.949 8.8878 60.8056 8.63174C60.6724 8.37569 60.4318 8.18108 60.0835 8.04793C59.7455 7.91478 59.2744 7.84821 58.6701 7.84821C58.0965 7.84821 57.6407 7.92502 57.3027 8.07866C56.975 8.22205 56.7394 8.42178 56.596 8.67783C56.4629 8.92365 56.3963 9.20019 56.3963 9.50746V9.76864H55.6896C55.6793 9.71743 55.6742 9.66622 55.6742 9.61501C55.6742 9.56379 55.6742 9.50234 55.6742 9.43064C55.6742 8.89804 55.8074 8.46787 56.0737 8.14011C56.34 7.81236 56.7138 7.57167 57.1952 7.41803C57.6868 7.2644 58.2501 7.18758 58.8852 7.18758C59.4895 7.18758 60.0016 7.27976 60.4215 7.46412C60.8517 7.63824 61.1794 7.8943 61.4048 8.23229C61.6403 8.56005 61.7581 8.9595 61.7581 9.43064V14.4699C61.7581 14.6645 61.7889 14.7976 61.8503 14.8693C61.9118 14.941 62.0091 14.9769 62.1422 14.9769H62.8643V15.407C62.6799 15.489 62.5109 15.5453 62.3573 15.576C62.2037 15.6068 62.0603 15.6221 61.9271 15.6221C61.6506 15.6221 61.4457 15.5607 61.3126 15.4378C61.1897 15.3046 61.1077 15.1305 61.0668 14.9154C61.0361 14.6901 61.0207 14.4494 61.0207 14.1933H60.9131C60.7083 14.5006 60.442 14.7618 60.1142 14.9769C59.7865 15.1919 59.4331 15.3558 59.0542 15.4685C58.6752 15.5812 58.286 15.6375 57.8865 15.6375ZM57.948 14.9769C58.2962 14.9769 58.6496 14.9205 59.0081 14.8079C59.3666 14.685 59.6943 14.516 59.9913 14.3009C60.2986 14.0858 60.5444 13.8297 60.7288 13.5327C60.9234 13.2254 61.0207 12.8874 61.0207 12.5187V11.474C59.8838 11.474 58.9569 11.5354 58.2399 11.6583C57.5229 11.771 56.9903 11.9707 56.6421 12.2575C56.3041 12.5443 56.1351 12.9438 56.1351 13.4559C56.1351 13.8246 56.217 14.1216 56.3809 14.347C56.5448 14.5723 56.765 14.7362 57.0415 14.8386C57.3181 14.9308 57.6202 14.9769 57.948 14.9769ZM63.9129 15.4531V7.37194H64.4506L64.5428 8.73929H64.6503C64.8961 8.31935 65.1675 7.99672 65.4646 7.77139C65.7718 7.54606 66.0945 7.39242 66.4325 7.31049C66.7705 7.22855 67.1238 7.18758 67.4926 7.18758C68.0047 7.18758 68.4502 7.26952 68.8292 7.43339C69.2081 7.58703 69.5 7.84821 69.7049 8.21693C69.92 8.58565 70.0275 9.08753 70.0275 9.72255V15.4531H69.2901V9.72255C69.2901 9.33334 69.2389 9.01583 69.1364 8.77002C69.034 8.5242 68.8906 8.33472 68.7063 8.20157C68.5321 8.06842 68.3222 7.97624 68.0764 7.92502C67.8408 7.87381 67.5847 7.84821 67.3082 7.84821C66.8678 7.84821 66.4427 7.95575 66.033 8.17084C65.6233 8.38593 65.2905 8.70344 65.0344 9.12338C64.7783 9.53307 64.6503 10.0401 64.6503 10.6444V15.4531H63.9129ZM74.4842 15.6375C73.9721 15.6375 73.5164 15.5863 73.1169 15.4839C72.7277 15.3917 72.3999 15.2483 72.1336 15.0537C71.8776 14.8488 71.683 14.5979 71.5498 14.3009C71.4167 14.0038 71.3501 13.6556 71.3501 13.2561C71.3501 13.2152 71.3501 13.1691 71.3501 13.1179C71.3501 13.0667 71.3552 13.0206 71.3655 12.9796H72.1029C72.0927 13.0411 72.0875 13.0923 72.0875 13.1332C72.0875 13.1742 72.0875 13.2152 72.0875 13.2561C72.0875 13.7068 72.1848 14.0602 72.3795 14.3162C72.5843 14.562 72.8711 14.7362 73.2398 14.8386C73.6188 14.9308 74.0592 14.9769 74.5611 14.9769C74.9912 14.9769 75.3702 14.9154 75.698 14.7925C76.036 14.6593 76.2971 14.475 76.4815 14.2394C76.6761 13.9936 76.7734 13.6966 76.7734 13.3483C76.7734 12.9182 76.6505 12.5955 76.4047 12.3804C76.1589 12.1551 75.8414 11.9861 75.4521 11.8734C75.0732 11.7505 74.6789 11.6276 74.2692 11.5047C73.9516 11.4125 73.6341 11.3152 73.3166 11.2128C73.0094 11.1001 72.7277 10.967 72.4716 10.8134C72.2258 10.6495 72.0261 10.4446 71.8725 10.1988C71.7291 9.953 71.6574 9.64061 71.6574 9.26165C71.6574 8.95438 71.7188 8.67271 71.8417 8.41666C71.9646 8.1606 72.1439 7.94039 72.3795 7.75603C72.6253 7.57166 72.9274 7.43339 73.2859 7.34121C73.6444 7.23879 74.0592 7.18758 74.5303 7.18758C75.0937 7.18758 75.5597 7.25415 75.9284 7.3873C76.2971 7.51021 76.5839 7.68433 76.7888 7.90966C77.0039 8.12475 77.1524 8.36032 77.2343 8.61638C77.3265 8.87244 77.3726 9.13362 77.3726 9.39992C77.3726 9.43064 77.3726 9.46649 77.3726 9.50746C77.3726 9.54843 77.3675 9.59452 77.3572 9.64573H76.6198V9.39992C76.6198 9.18483 76.5686 8.9595 76.4661 8.72393C76.374 8.47811 76.1742 8.27326 75.867 8.10939C75.5699 7.93527 75.109 7.84821 74.4842 7.84821C74.136 7.84821 73.8339 7.87893 73.5778 7.94039C73.3217 8.00184 73.1067 8.09402 72.9325 8.21693C72.7584 8.3296 72.6253 8.47299 72.5331 8.64711C72.4511 8.82123 72.4102 9.02607 72.4102 9.26165C72.4102 9.60989 72.5126 9.87619 72.7174 10.0605C72.9223 10.2347 73.1886 10.3729 73.5163 10.4754C73.8441 10.5778 74.1923 10.6904 74.5611 10.8134C74.9093 10.926 75.2575 11.0387 75.6058 11.1514C75.9643 11.264 76.2869 11.4023 76.5737 11.5662C76.8707 11.73 77.1063 11.9451 77.2804 12.2114C77.4545 12.4675 77.5416 12.8055 77.5416 13.2254C77.5416 13.6044 77.4648 13.9424 77.3111 14.2394C77.1575 14.5364 76.9424 14.7925 76.6659 15.0076C76.3996 15.2124 76.0769 15.3661 75.698 15.4685C75.3292 15.5812 74.9247 15.6375 74.4842 15.6375ZM81.116 15.6375C80.7473 15.6375 80.4041 15.5914 80.0866 15.4992C79.7794 15.4173 79.5079 15.2892 79.2724 15.1151C79.047 14.9308 78.8678 14.7003 78.7346 14.4238C78.6117 14.1472 78.5503 13.8195 78.5503 13.4405C78.5503 12.8772 78.6937 12.4214 78.9805 12.0732C79.2672 11.7249 79.6667 11.4586 80.1788 11.2743C80.6909 11.0797 81.2952 10.9516 81.9917 10.8902C82.6882 10.8185 83.441 10.7826 84.2501 10.7826V9.56892C84.2501 9.20019 84.1784 8.8878 84.035 8.63174C83.9019 8.37569 83.6612 8.18108 83.313 8.04793C82.975 7.91478 82.5038 7.84821 81.8995 7.84821C81.326 7.84821 80.8702 7.92502 80.5322 8.07866C80.2044 8.22205 79.9688 8.42178 79.8255 8.67783C79.6923 8.92365 79.6257 9.20019 79.6257 9.50746V9.76864H78.919C78.9088 9.71743 78.9036 9.66622 78.9036 9.61501C78.9036 9.56379 78.9036 9.50234 78.9036 9.43064C78.9036 8.89804 79.0368 8.46787 79.3031 8.14011C79.5694 7.81236 79.9432 7.57167 80.4246 7.41803C80.9163 7.2644 81.4796 7.18758 82.1146 7.18758C82.7189 7.18758 83.231 7.27976 83.651 7.46412C84.0811 7.63824 84.4089 7.8943 84.6342 8.23229C84.8698 8.56005 84.9876 8.9595 84.9876 9.43064V14.4699C84.9876 14.6645 85.0183 14.7976 85.0798 14.8693C85.1412 14.941 85.2385 14.9769 85.3717 14.9769H86.0938V15.407C85.9094 15.489 85.7404 15.5453 85.5868 15.576C85.4331 15.6068 85.2897 15.6221 85.1566 15.6221C84.88 15.6221 84.6752 15.5607 84.542 15.4378C84.4191 15.3046 84.3372 15.1305 84.2962 14.9154C84.2655 14.6901 84.2501 14.4494 84.2501 14.1933H84.1426C83.9377 14.5006 83.6714 14.7618 83.3437 14.9769C83.0159 15.1919 82.6626 15.3558 82.2836 15.4685C81.9046 15.5812 81.5154 15.6375 81.116 15.6375ZM81.1774 14.9769C81.5257 14.9769 81.879 14.9205 82.2375 14.8079C82.596 14.685 82.9238 14.516 83.2208 14.3009C83.5281 14.0858 83.7739 13.8297 83.9582 13.5327C84.1528 13.2254 84.2501 12.8874 84.2501 12.5187V11.474C83.1132 11.474 82.1863 11.5354 81.4693 11.6583C80.7524 11.771 80.2198 11.9707 79.8715 12.2575C79.5335 12.5443 79.3646 12.9438 79.3646 13.4559C79.3646 13.8246 79.4465 14.1216 79.6104 14.347C79.7742 14.5723 79.9945 14.7362 80.271 14.8386C80.5475 14.9308 80.8497 14.9769 81.1774 14.9769ZM89.8924 15.6375C89.1856 15.6375 88.5814 15.4839 88.0795 15.1766C87.5878 14.8693 87.2089 14.4033 86.9426 13.7785C86.6763 13.1435 86.5431 12.3548 86.5431 11.4125C86.5431 10.4907 86.6712 9.71743 86.9272 9.09265C87.1935 8.45763 87.5827 7.98136 88.0948 7.66385C88.607 7.34633 89.2317 7.18758 89.9692 7.18758C90.5428 7.18758 91.019 7.2644 91.398 7.41803C91.7872 7.57167 92.0945 7.79187 92.3198 8.07866C92.5451 8.3552 92.7039 8.68808 92.7961 9.07728C92.8985 9.45625 92.9497 9.87106 92.9497 10.3217H92.2276C92.2276 9.73791 92.1508 9.26677 91.9972 8.90829C91.8538 8.53956 91.6131 8.27326 91.2751 8.10939C90.9473 7.93527 90.5018 7.84821 89.9385 7.84821C89.4673 7.84821 89.032 7.95063 88.6326 8.15548C88.2331 8.36032 87.9156 8.70344 87.68 9.18483C87.4445 9.66622 87.3267 10.332 87.3267 11.1821V11.643C87.3267 12.4316 87.4342 13.0718 87.6493 13.5634C87.8644 14.055 88.1665 14.4135 88.5557 14.6389C88.945 14.8642 89.3956 14.9769 89.9077 14.9769C90.5018 14.9769 90.9627 14.8796 91.2904 14.685C91.6284 14.4801 91.8691 14.1933 92.0125 13.8246C92.1559 13.4456 92.2276 13.0052 92.2276 12.5033H92.9497C92.9497 12.8925 92.8985 13.2766 92.7961 13.6556C92.7039 14.0243 92.54 14.3572 92.3044 14.6542C92.0791 14.9513 91.7667 15.1919 91.3673 15.3763C90.9781 15.5504 90.4864 15.6375 89.8924 15.6375ZM96.0585 15.6221C95.741 15.6221 95.4901 15.5709 95.3057 15.4685C95.1213 15.3661 94.9882 15.2176 94.9063 15.0229C94.8346 14.8181 94.7987 14.5825 94.7987 14.3162V8.03257H93.6618V7.37194H94.7987L94.9523 5.12887H95.5362V7.37194H97.1801V8.03257H95.5362V14.1011C95.5362 14.4084 95.5669 14.6337 95.6283 14.7771C95.7 14.9103 95.8793 14.9769 96.1661 14.9769H97.1801V15.407C97.0776 15.4582 96.9598 15.4992 96.8267 15.5299C96.6935 15.5607 96.5604 15.5812 96.4272 15.5914C96.2941 15.6119 96.1712 15.6221 96.0585 15.6221ZM98.5527 5.51296V4.34534H99.2901V5.51296H98.5527ZM98.5527 15.4531V7.37194H99.2901V15.4531H98.5527ZM104.381 15.6375C103.643 15.6375 103.013 15.489 102.491 15.1919C101.969 14.8847 101.569 14.4187 101.293 13.7939C101.016 13.1691 100.878 12.3753 100.878 11.4125C100.878 10.4395 101.016 9.64573 101.293 9.03119C101.569 8.40641 101.969 7.94551 102.491 7.64848C103.013 7.34121 103.643 7.18758 104.381 7.18758C105.128 7.18758 105.758 7.34121 106.27 7.64848C106.793 7.94551 107.192 8.40641 107.469 9.03119C107.745 9.64573 107.883 10.4395 107.883 11.4125C107.883 12.3753 107.745 13.1691 107.469 13.7939C107.192 14.4187 106.793 14.8847 106.27 15.1919C105.758 15.489 105.128 15.6375 104.381 15.6375ZM104.381 14.9769C104.944 14.9769 105.425 14.8642 105.825 14.6389C106.234 14.4135 106.547 14.055 106.762 13.5634C106.987 13.0718 107.1 12.4316 107.1 11.643V11.1821C107.1 10.3832 106.987 9.74304 106.762 9.26165C106.547 8.77002 106.234 8.41153 105.825 8.1862C105.425 7.96087 104.944 7.84821 104.381 7.84821C103.817 7.84821 103.331 7.96087 102.921 8.1862C102.522 8.41153 102.209 8.77002 101.984 9.26165C101.769 9.74304 101.661 10.3832 101.661 11.1821V11.643C101.661 12.4316 101.769 13.0718 101.984 13.5634C102.209 14.055 102.522 14.4135 102.921 14.6389C103.331 14.8642 103.817 14.9769 104.381 14.9769ZM109.468 15.4531V7.37194H110.006L110.098 8.73929H110.205C110.451 8.31935 110.723 7.99672 111.02 7.77139C111.327 7.54606 111.65 7.39242 111.988 7.31049C112.326 7.22855 112.679 7.18758 113.048 7.18758C113.56 7.18758 114.005 7.26952 114.384 7.43339C114.763 7.58703 115.055 7.84821 115.26 8.21693C115.475 8.58565 115.583 9.08753 115.583 9.72255V15.4531H114.845V9.72255C114.845 9.33334 114.794 9.01583 114.692 8.77002C114.589 8.5242 114.446 8.33472 114.261 8.20157C114.087 8.06842 113.877 7.97624 113.631 7.92502C113.396 7.87381 113.14 7.84821 112.863 7.84821C112.423 7.84821 111.998 7.95575 111.588 8.17084C111.178 8.38593 110.846 8.70344 110.589 9.12338C110.333 9.53307 110.205 10.0401 110.205 10.6444V15.4531H109.468Z" fill="#1D0E7D"/>
<path d="M46.5767 28.5371L43.7191 17.9978H45.8392L47.5446 24.7731C47.5753 24.8755 47.606 25.0189 47.6367 25.2032C47.6675 25.3774 47.6982 25.5617 47.7289 25.7563C47.7597 25.9509 47.7853 26.125 47.8057 26.2787H47.8826C47.903 26.1558 47.9184 26.0226 47.9287 25.8792C47.9491 25.7358 47.9696 25.5924 47.9901 25.4491C48.0208 25.3057 48.0464 25.1776 48.0669 25.065C48.0874 24.9421 48.1028 24.8448 48.113 24.7731L49.6955 17.9978H52.2612L53.8436 24.7731C53.8743 24.8755 53.905 25.0189 53.9358 25.2032C53.9665 25.3774 53.9972 25.5617 54.0279 25.7563C54.0587 25.9509 54.0843 26.125 54.1048 26.2787H54.1816C54.2021 26.166 54.2226 26.0431 54.243 25.91C54.2738 25.7666 54.2994 25.6283 54.3199 25.4951C54.3506 25.3517 54.3813 25.2186 54.412 25.0957C54.4428 24.9728 54.4684 24.8652 54.4889 24.7731L56.1942 17.9978H58.0685L55.1956 28.5371H52.9064L51.2011 21.6235C51.1703 21.4802 51.1345 21.3163 51.0935 21.1319C51.0628 20.9373 51.0321 20.7478 51.0013 20.5635C50.9809 20.3689 50.9604 20.1999 50.9399 20.0565H50.8784C50.8682 20.2101 50.8477 20.3893 50.817 20.5942C50.7965 20.7888 50.7709 20.9783 50.7402 21.1626C50.7094 21.347 50.6787 21.5006 50.648 21.6235L48.958 28.5371H46.5767ZM60.0704 28.7215C59.845 28.7215 59.5838 28.6907 59.2868 28.6293C59 28.5781 58.7184 28.4757 58.4418 28.322C58.1755 28.1684 57.9553 27.9431 57.7812 27.646C57.6071 27.3388 57.52 26.9393 57.52 26.4477C57.52 25.8946 57.6429 25.4388 57.8887 25.0803C58.1346 24.7116 58.4777 24.4248 58.9181 24.22C59.3688 24.0049 59.9014 23.8564 60.5159 23.7744C61.1407 23.6823 61.8218 23.6362 62.5592 23.6362V22.9755C62.5592 22.74 62.5234 22.53 62.4517 22.3456C62.38 22.1613 62.2468 22.0179 62.0522 21.9155C61.8679 21.8028 61.5862 21.7465 61.2072 21.7465C60.8283 21.7465 60.5313 21.7925 60.3162 21.8847C60.1011 21.9769 59.9526 22.0896 59.8706 22.2227C59.7887 22.3559 59.7477 22.4941 59.7477 22.6375V22.8526H57.9348C57.9246 22.8014 57.9195 22.7502 57.9195 22.699C57.9195 22.6478 57.9195 22.5863 57.9195 22.5146C57.9195 22.0537 58.0577 21.6543 58.3343 21.3163C58.6108 20.9783 58.9949 20.7222 59.4865 20.5481C59.9782 20.3637 60.5466 20.2716 61.1919 20.2716C61.9293 20.2716 62.5336 20.374 63.0048 20.5788C63.4862 20.7837 63.8446 21.0756 64.0802 21.4545C64.3158 21.8335 64.4336 22.2944 64.4336 22.8373V26.6474C64.4336 26.842 64.4899 26.9803 64.6026 27.0622C64.7152 27.1442 64.8381 27.1851 64.9713 27.1851H65.4629V28.4757C65.3605 28.5166 65.212 28.5627 65.0174 28.6139C64.8228 28.6754 64.5821 28.7061 64.2953 28.7061C64.029 28.7061 63.7883 28.66 63.5732 28.5678C63.3684 28.4859 63.1943 28.363 63.0509 28.1991C62.9075 28.0352 62.8051 27.8406 62.7436 27.6153H62.6514C62.4773 27.8304 62.2673 28.025 62.0215 28.1991C61.7859 28.363 61.5043 28.491 61.1765 28.5832C60.859 28.6754 60.4903 28.7215 60.0704 28.7215ZM60.6388 27.1851C60.9461 27.1851 61.2175 27.139 61.4531 27.0469C61.6989 26.9547 61.8986 26.8266 62.0522 26.6628C62.2161 26.4989 62.339 26.2992 62.421 26.0636C62.5131 25.828 62.5592 25.572 62.5592 25.2954V24.9267C61.9959 24.9267 61.4735 24.9625 60.9922 25.0342C60.521 25.1059 60.142 25.2391 59.8553 25.4337C59.5787 25.6283 59.4405 25.9048 59.4405 26.2633C59.4405 26.4477 59.4814 26.6116 59.5634 26.7549C59.6555 26.8881 59.7887 26.9956 59.9628 27.0776C60.1472 27.1493 60.3725 27.1851 60.6388 27.1851ZM68.2078 28.7215C67.706 28.7215 67.3116 28.6242 67.0248 28.4296C66.7381 28.2247 66.5332 27.9687 66.4103 27.6614C66.2976 27.3439 66.2413 27.0212 66.2413 26.6935V21.9923H65.2734V20.4559H66.2874L66.6254 18.1975H68.1156V20.4559H69.5137V21.9923H68.1156V26.5091C68.1156 26.7242 68.172 26.8932 68.2846 27.0161C68.3973 27.1288 68.5663 27.1851 68.7916 27.1851H69.5137V28.4757C69.4113 28.5166 69.2833 28.5525 69.1296 28.5832C68.9862 28.6242 68.8326 28.6549 68.6687 28.6754C68.5049 28.7061 68.3512 28.7215 68.2078 28.7215ZM73.8071 28.7215C72.9672 28.7215 72.2656 28.573 71.7023 28.2759C71.1492 27.9687 70.7344 27.5026 70.4579 26.8779C70.1813 26.2531 70.043 25.4593 70.043 24.4965C70.043 23.5235 70.1813 22.7297 70.4579 22.1152C70.7446 21.4904 71.1646 21.0295 71.7177 20.7325C72.281 20.4252 72.9775 20.2716 73.8071 20.2716C74.3499 20.2716 74.8313 20.3381 75.2513 20.4713C75.6712 20.6044 76.0297 20.8093 76.3267 21.0858C76.634 21.3521 76.8644 21.685 77.0181 22.0845C77.1717 22.4839 77.2485 22.9499 77.2485 23.4825H75.3434C75.3434 23.1036 75.2871 22.7912 75.1744 22.5454C75.0618 22.2995 74.8877 22.1152 74.6521 21.9923C74.4268 21.8591 74.1348 21.7925 73.7764 21.7925C73.3564 21.7925 73.0133 21.8898 72.747 22.0845C72.4807 22.2791 72.281 22.571 72.1478 22.9602C72.0249 23.3391 71.9635 23.8205 71.9635 24.4043V24.6041C71.9635 25.1776 72.0249 25.659 72.1478 26.0482C72.281 26.4374 72.4858 26.7293 72.7624 26.9239C73.0389 27.1083 73.4025 27.2005 73.8532 27.2005C74.2014 27.2005 74.4882 27.139 74.7135 27.0161C74.9491 26.883 75.1284 26.6884 75.2513 26.4323C75.3742 26.1763 75.4356 25.869 75.4356 25.5105H77.2485C77.2485 26.0124 77.1717 26.463 77.0181 26.8625C76.8644 27.2619 76.6391 27.5999 76.3421 27.8765C76.045 28.153 75.6814 28.363 75.2513 28.5064C74.8313 28.6498 74.3499 28.7215 73.8071 28.7215ZM78.3835 28.5371V17.4293H80.2578V21.3777H80.3654C80.5395 21.1626 80.7443 20.9732 80.9799 20.8093C81.2155 20.6454 81.4818 20.5174 81.7788 20.4252C82.0861 20.3228 82.4241 20.2716 82.7928 20.2716C83.3049 20.2716 83.7556 20.3637 84.1448 20.5481C84.5442 20.7325 84.8566 21.0295 85.082 21.4392C85.3073 21.8489 85.42 22.3968 85.42 23.0831V28.5371H83.5302V23.4211C83.5302 23.1343 83.4944 22.8987 83.4227 22.7144C83.3613 22.5198 83.2639 22.3661 83.1308 22.2535C83.0079 22.1305 82.8543 22.0435 82.6699 21.9923C82.4855 21.9411 82.2807 21.9155 82.0554 21.9155C81.7174 21.9155 81.4101 21.9974 81.1335 22.1613C80.8672 22.3251 80.6522 22.5505 80.4883 22.8373C80.3346 23.124 80.2578 23.4569 80.2578 23.8359V28.5371H78.3835ZM90.3668 28.7215C89.5064 28.7215 88.7894 28.573 88.2159 28.2759C87.6423 27.9687 87.2121 27.5026 86.9253 26.8779C86.6386 26.2531 86.4952 25.4593 86.4952 24.4965C86.4952 23.5235 86.6386 22.7297 86.9253 22.1152C87.2121 21.4904 87.6423 21.0295 88.2159 20.7325C88.7894 20.4252 89.5064 20.2716 90.3668 20.2716C91.1452 20.2716 91.7956 20.4201 92.3179 20.7171C92.8505 21.0039 93.25 21.4494 93.5163 22.0537C93.7826 22.658 93.9157 23.4416 93.9157 24.4043V24.9574H88.4156C88.4361 25.4593 88.5129 25.8844 88.646 26.2326C88.7792 26.5706 88.984 26.8266 89.2606 27.0008C89.5474 27.1646 89.9212 27.2466 90.3821 27.2466C90.6177 27.2466 90.8379 27.2159 91.0427 27.1544C91.2476 27.0929 91.4268 27.0008 91.5805 26.8779C91.7341 26.7447 91.8519 26.5808 91.9338 26.3862C92.026 26.1916 92.0721 25.9663 92.0721 25.7102H93.9157C93.9157 26.2223 93.8235 26.6679 93.6392 27.0469C93.4651 27.4258 93.2141 27.7382 92.8864 27.984C92.5689 28.2298 92.195 28.4142 91.7648 28.5371C91.3347 28.66 90.8686 28.7215 90.3668 28.7215ZM88.4463 23.6362H91.9646C91.9646 23.2982 91.9236 23.0114 91.8416 22.7758C91.77 22.5402 91.6624 22.3456 91.519 22.192C91.3859 22.0384 91.222 21.9308 91.0274 21.8694C90.8328 21.7977 90.6126 21.7618 90.3668 21.7618C89.9673 21.7618 89.6293 21.8284 89.3528 21.9615C89.0865 22.0947 88.8816 22.2995 88.7382 22.5761C88.5948 22.8526 88.4975 23.206 88.4463 23.6362ZM95.0456 28.5371V20.4559H96.6127L96.7664 21.7311H96.8739C96.9763 21.475 97.0992 21.2395 97.2426 21.0244C97.3963 20.799 97.5909 20.6198 97.8264 20.4867C98.062 20.3433 98.3488 20.2716 98.6868 20.2716C98.8507 20.2716 98.9992 20.2869 99.1323 20.3177C99.2757 20.3484 99.3833 20.3791 99.455 20.4098V22.1766H98.8865C98.569 22.1766 98.2873 22.2227 98.0415 22.3149C97.7957 22.3968 97.5857 22.53 97.4116 22.7144C97.2477 22.8987 97.1248 23.1292 97.0429 23.4057C96.961 23.6823 96.92 24.0049 96.92 24.3736V28.5371H95.0456Z" fill="#1D0E7D"/>
<path d="M5.93262 23.1367L11.043 18.1719L11.0225 21.1025L11.0234 25.4375L5.93262 30.5273V30.5293L4.47852 31.9834H4.47656L4.45996 32L4.44434 31.9834H0.117188V13.084L5.93262 8.72266V23.1367ZM35.0078 13.084V31.9834H30.6807L30.665 32L30.6484 31.9834H30.6465L29.1924 30.5293V30.5273L24.1016 25.4375L24.1025 21.1025L24.082 18.1719L29.1924 23.1367V8.72266L35.0078 13.084ZM29.1924 5.81543H20.4707V25.4414H14.6553V5.81543H5.93164L0.117188 0H35.0078L29.1924 5.81543Z" fill="#1D0E7D"/>
</svg>
