<svg width="1440" height="1100" viewBox="0 0 1440 1100" fill="none" xmlns="http://www.w3.org/2000/svg">
<path d="M21.5859 271.569L185.586 239V256.431L21.5859 289V271.569Z" fill="#645BFF" fill-opacity="0.6"/>
<mask id="mask0_567_34889" style="mask-type:alpha" maskUnits="userSpaceOnUse" x="0" y="0" width="1442" height="1100">
<path d="M0.117188 288.5L1441.12 0V811L0.117188 1099.5V288.5Z" fill="#D9D9D9"/>
</mask>
<g mask="url(#mask0_567_34889)">
<g clip-path="url(#clip0_567_34889)">
<rect x="-383.883" y="-18" width="2565" height="1461" fill="#0A2540"/>
<g opacity="0.15">
<mask id="path-4-inside-1_567_34889" fill="white">
<path d="M1119.45 -739.299L1707.38 -159.241L-312.651 1888.2L-900.58 1308.15L1119.45 -739.299Z"/>
</mask>
<path d="M1119.45 -739.299L1707.38 -159.241L-312.651 1888.2L-900.58 1308.15L1119.45 -739.299Z" fill="url(#paint0_linear_567_34889)" fill-opacity="0.8"/>
<path d="M-900.58 1308.15L-899.312 1309.4L1120.72 -738.048L1119.45 -739.299L1118.19 -740.55L-901.848 1306.9L-900.58 1308.15Z" fill="url(#paint1_linear_567_34889)" fill-opacity="0.5" mask="url(#path-4-inside-1_567_34889)"/>
<mask id="path-6-inside-2_567_34889" fill="white">
<path d="M1151.82 -324L1583.39 101.787L100.596 1604.7L-330.969 1178.91L1151.82 -324Z"/>
</mask>
<path d="M1151.82 -324L1583.39 101.787L100.596 1604.7L-330.969 1178.91L1151.82 -324Z" fill="url(#paint2_linear_567_34889)" fill-opacity="0.5"/>
<path d="M-330.969 1178.91L-329.702 1180.16L1153.09 -322.749L1151.82 -324L1150.55 -325.251L-332.237 1177.66L-330.969 1178.91Z" fill="url(#paint3_linear_567_34889)" fill-opacity="0.5" mask="url(#path-6-inside-2_567_34889)"/>
</g>
<g filter="url(#filter0_f_567_34889)">
<circle cx="7.11719" cy="593" r="359" fill="#645BFF" fill-opacity="0.3"/>
</g>
<g filter="url(#filter1_f_567_34889)">
<circle cx="1348.12" cy="691" r="359" fill="#645BFF" fill-opacity="0.31"/>
</g>
<g opacity="0.2">
<line x1="435.867" y1="-115" x2="435.867" y2="12945" stroke="#E6E9EC" stroke-dasharray="4 4"/>
<line x1="149.617" y1="-115" x2="149.617" y2="12945" stroke="#E6E9EC" stroke-dasharray="4 4"/>
<line x1="1008.37" y1="-115" x2="1008.37" y2="12945" stroke="#E6E9EC" stroke-dasharray="4 4"/>
<line x1="722.117" y1="-115" x2="722.117" y2="12945" stroke="#E6E9EC" stroke-dasharray="4 4"/>
<line x1="1294.62" y1="-115" x2="1294.62" y2="12945" stroke="#E6E9EC" stroke-dasharray="4 4"/>
</g>
</g>
</g>
<path d="M70.1172 250.541L168.117 231V246.459L70.1172 266V250.541Z" fill="#38D6EC" fill-opacity="0.6"/>
<defs>
<filter id="filter0_f_567_34889" x="-1119.75" y="-533.866" width="2253.73" height="2253.73" filterUnits="userSpaceOnUse" color-interpolation-filters="sRGB">
<feFlood flood-opacity="0" result="BackgroundImageFix"/>
<feBlend mode="normal" in="SourceGraphic" in2="BackgroundImageFix" result="shape"/>
<feGaussianBlur stdDeviation="383.933" result="effect1_foregroundBlur_567_34889"/>
</filter>
<filter id="filter1_f_567_34889" x="221.251" y="-435.866" width="2253.73" height="2253.73" filterUnits="userSpaceOnUse" color-interpolation-filters="sRGB">
<feFlood flood-opacity="0" result="BackgroundImageFix"/>
<feBlend mode="normal" in="SourceGraphic" in2="BackgroundImageFix" result="shape"/>
<feGaussianBlur stdDeviation="383.933" result="effect1_foregroundBlur_567_34889"/>
</filter>
<linearGradient id="paint0_linear_567_34889" x1="1827.86" y1="-1198.79" x2="-606.615" y2="1598.18" gradientUnits="userSpaceOnUse">
<stop stop-color="#645BFF"/>
<stop offset="1" stop-color="#645BFF" stop-opacity="0"/>
</linearGradient>
<linearGradient id="paint1_linear_567_34889" x1="1266.98" y1="-888.831" x2="114.373" y2="-1197.06" gradientUnits="userSpaceOnUse">
<stop stop-color="#4070F4"/>
<stop offset="0.5" stop-color="#5BB1EC"/>
<stop offset="1" stop-color="#645BFF"/>
</linearGradient>
<linearGradient id="paint2_linear_567_34889" x1="1367.6" y1="-111.106" x2="-115.187" y2="1391.81" gradientUnits="userSpaceOnUse">
<stop stop-color="#645BFF"/>
<stop offset="1" stop-color="#645BFF" stop-opacity="0"/>
</linearGradient>
<linearGradient id="paint3_linear_567_34889" x1="1260.11" y1="-433.763" x2="414.049" y2="-660.015" gradientUnits="userSpaceOnUse">
<stop stop-color="#4070F4"/>
<stop offset="0.5" stop-color="#5BB1EC"/>
<stop offset="1" stop-color="#645BFF"/>
</linearGradient>
<clipPath id="clip0_567_34889">
<rect width="2211.8" height="1178.09" fill="white" transform="translate(-385.883 -75)"/>
</clipPath>
</defs>
</svg>
