<?xml version="1.0" encoding="UTF-8"?>
<svg xmlns="http://www.w3.org/2000/svg" width="30" height="30" viewBox="0 0 30 30" fill="none">
  <g id="lock-simple-fill (1)">
    <path id="Vector" d="M24.375 9.375H20.625V6.5625C20.625 5.07066 20.0324 3.63992 18.9775 2.58502C17.9226 1.53013 16.4918 0.9375 15 0.9375C13.5082 0.9375 12.0774 1.53013 11.0225 2.58502C9.96763 3.63992 9.375 5.07066 9.375 6.5625V9.375H5.625C5.12772 9.375 4.65081 9.57254 4.29917 9.92418C3.94754 10.2758 3.75 10.7527 3.75 11.25V24.375C3.75 24.8723 3.94754 25.3492 4.29917 25.7008C4.65081 26.0525 5.12772 26.25 5.625 26.25H24.375C24.8723 26.25 25.3492 26.0525 25.7008 25.7008C26.0525 25.3492 26.25 24.8723 26.25 24.375V11.25C26.25 10.7527 26.0525 10.2758 25.7008 9.92418C25.3492 9.57254 24.8723 9.375 24.375 9.375ZM11.25 6.5625C11.25 5.56794 11.6451 4.61411 12.3483 3.91085C13.0516 3.20759 14.0054 2.8125 15 2.8125C15.9946 2.8125 16.9484 3.20759 17.6516 3.91085C18.3549 4.61411 18.75 5.56794 18.75 6.5625V9.375H11.25V6.5625Z" fill="#645BFF"></path>
  </g>
</svg>
