<?xml version="1.0" encoding="UTF-8"?>
<svg xmlns="http://www.w3.org/2000/svg" width="31" height="31" viewBox="0 0 31 31" fill="none">
  <g id="credit-card-fill 1">
    <path id="Vector" d="M27.0735 6.44824H4.57349C4.07621 6.44824 3.59929 6.64579 3.24766 6.99742C2.89603 7.34905 2.69849 7.82596 2.69849 8.32324V23.3232C2.69849 23.8205 2.89603 24.2974 3.24766 24.6491C3.59929 25.0007 4.07621 25.1982 4.57349 25.1982H27.0735C27.5708 25.1982 28.0477 25.0007 28.3993 24.6491C28.7509 24.2974 28.9485 23.8205 28.9485 23.3232V8.32324C28.9485 7.82596 28.7509 7.34905 28.3993 6.99742C28.0477 6.64579 27.5708 6.44824 27.0735 6.44824ZM16.761 21.4482H14.886C14.6373 21.4482 14.3989 21.3495 14.2231 21.1737C14.0473 20.9978 13.9485 20.7594 13.9485 20.5107C13.9485 20.2621 14.0473 20.0236 14.2231 19.8478C14.3989 19.672 14.6373 19.5732 14.886 19.5732H16.761C17.0096 19.5732 17.2481 19.672 17.4239 19.8478C17.5997 20.0236 17.6985 20.2621 17.6985 20.5107C17.6985 20.7594 17.5997 20.9978 17.4239 21.1737C17.2481 21.3495 17.0096 21.4482 16.761 21.4482ZM24.261 21.4482H20.511C20.2623 21.4482 20.0239 21.3495 19.8481 21.1737C19.6723 20.9978 19.5735 20.7594 19.5735 20.5107C19.5735 20.2621 19.6723 20.0236 19.8481 19.8478C20.0239 19.672 20.2623 19.5732 20.511 19.5732H24.261C24.5096 19.5732 24.7481 19.672 24.9239 19.8478C25.0997 20.0236 25.1985 20.2621 25.1985 20.5107C25.1985 20.7594 25.0997 20.9978 24.9239 21.1737C24.7481 21.3495 24.5096 21.4482 24.261 21.4482ZM4.57349 11.1357V8.32324H27.0735V11.1357H4.57349Z" fill="#645BFF"></path>
  </g>
</svg>
