<svg width="188" height="70" viewBox="0 0 188 70" fill="none" xmlns="http://www.w3.org/2000/svg">
<path d="M25.1897 30.2207C26.3647 30.2207 27.3915 30.4536 28.2701 30.9193C29.1487 31.3851 29.8261 32.0414 30.3025 32.8882C30.7894 33.7245 31.0329 34.6931 31.0329 35.7939C31.0329 36.8842 30.7894 37.8528 30.3025 38.6997C29.8261 39.5465 29.1434 40.2028 28.2542 40.6685C27.3756 41.1343 26.3541 41.3672 25.1897 41.3672H21.0137V30.2207H25.1897ZM25.0151 39.0172C26.0418 39.0172 26.841 38.7367 27.4127 38.1757C27.9843 37.6146 28.2701 36.8207 28.2701 35.7939C28.2701 34.7672 27.9843 33.9679 27.4127 33.3963C26.841 32.8247 26.0418 32.5389 25.0151 32.5389H23.7289V39.0172H25.0151ZM40.5687 33.8092C40.5687 34.4549 40.4205 35.0477 40.1241 35.5875C39.8278 36.1168 39.3726 36.5455 38.7586 36.8737C38.1447 37.2018 37.3825 37.3659 36.4722 37.3659H34.7891V41.3672H32.0739V30.2207H36.4722C37.3613 30.2207 38.1129 30.3742 38.7269 30.6812C39.3408 30.9881 39.8013 31.4116 40.1083 31.9514C40.4152 32.4913 40.5687 33.1105 40.5687 33.8092ZM36.2657 35.2064C36.7844 35.2064 37.1708 35.0847 37.4249 34.8412C37.6789 34.5978 37.8059 34.2538 37.8059 33.8092C37.8059 33.3646 37.6789 33.0205 37.4249 32.7771C37.1708 32.5336 36.7844 32.4119 36.2657 32.4119H34.7891V35.2064H36.2657ZM48.7623 30.2207V32.396H44.2211V34.746H47.619V36.8578H44.2211V41.3672H41.5059V30.2207H48.7623Z" fill="#D1282E"/>
<rect x="34.9648" y="2.625" width="46.9304" height="46.3438" transform="rotate(45 34.9648 2.625)" stroke="#1B5D91" stroke-width="1.65924"/>
<rect x="1.36719" y="1.80078" width="67.1992" height="67.1992" stroke="#1B5D91" stroke-width="1.65924"/>
<rect x="10.082" y="11.7578" width="47.611" height="47.611" stroke="#1B5D91" stroke-width="1.65924"/>
<path d="M5.72461 6.57031V31.6663L30.8206 6.57031H5.72461Z" stroke="#1B5D91" stroke-width="1.24443"/>
<path d="M62.9707 64.6445V41.4152L38.9117 64.6445H62.9707Z" stroke="#1B5D91" stroke-width="1.24443"/>
<path d="M63.3809 6.36328V31.4593L38.2849 6.36328H63.3809Z" stroke="#1B5D91" stroke-width="1.24443"/>
<path d="M5.72461 64.4336V39.3376L30.8206 64.4336H5.72461Z" stroke="#1B5D91" stroke-width="1.24443"/>
<path d="M34.9834 7.7168L35.0293 7.86035H35.8984L35.3174 8.28223L35.1953 8.37109L35.2422 8.51465L35.4639 9.19727L34.8828 8.77539L34.7607 8.68652L34.6396 8.77539L34.0576 9.19727L34.2803 8.51465L34.3271 8.37109L34.2051 8.28223L33.624 7.86035H34.4932L34.5391 7.7168L34.7607 7.0332L34.9834 7.7168Z" fill="#1B5D91" stroke="#1B5D91" stroke-width="0.41481"/>
<path d="M61.9424 35.0918L61.9883 35.2354H62.8574L62.2764 35.6572L62.1543 35.7461L62.2012 35.8896L62.4229 36.5723L61.8418 36.1504L61.7197 36.0615L61.5986 36.1504L61.0166 36.5723L61.2393 35.8896L61.2861 35.7461L61.1641 35.6572L60.583 35.2354H61.4521L61.498 35.0918L61.7197 34.4082L61.9424 35.0918Z" fill="#1B5D91" stroke="#1B5D91" stroke-width="0.41481"/>
<path d="M6.97016 33.7383L7.38925 35.0281L8.74545 35.0281L7.64826 35.8253L8.06735 37.1151L6.97016 36.3179L5.87297 37.1151L6.29206 35.8253L5.19488 35.0281L6.55107 35.0281L6.97016 33.7383Z" fill="#1B5D91"/>
<path d="M34.7612 61.1211L35.1803 62.4109L36.5365 62.4109L35.4393 63.2081L35.8584 64.4979L34.7612 63.7007L33.664 64.4979L34.0831 63.2081L32.9859 62.4109L34.3421 62.4109L34.7612 61.1211Z" fill="#1B5D91"/>
<path d="M81.9017 21.7339C83.0493 21.7339 84.0523 21.9614 84.9104 22.4163C85.7686 22.8712 86.4303 23.5122 86.8955 24.3394C87.3711 25.1562 87.6089 26.1022 87.6089 27.1775C87.6089 28.2424 87.3711 29.1885 86.8955 30.0156C86.4303 30.8427 85.7634 31.4838 84.8949 31.9387C84.0367 32.3936 83.039 32.6211 81.9017 32.6211H77.8229V21.7339H81.9017ZM81.7311 30.3258C82.734 30.3258 83.5146 30.0518 84.0729 29.5038C84.6312 28.9558 84.9104 28.1804 84.9104 27.1775C84.9104 26.1746 84.6312 25.394 84.0729 24.8357C83.5146 24.2773 82.734 23.9982 81.7311 23.9982H80.4749V30.3258H81.7311ZM95.4031 30.698H91.3398L90.6884 32.6211H87.9123L91.8516 21.7339H94.9223L98.8616 32.6211H96.0545L95.4031 30.698ZM94.7207 28.6508L93.3714 24.6651L92.0377 28.6508H94.7207ZM107.427 21.7339V23.8586H104.543V32.6211H101.891V23.8586H99.0059V21.7339H107.427ZM115.07 30.698H111.007L110.356 32.6211H107.579L111.519 21.7339H114.589L118.529 32.6211H115.722L115.07 30.698ZM114.388 28.6508L113.039 24.6651L111.705 28.6508H114.388ZM130.381 25.2389C130.381 25.8696 130.236 26.4486 129.947 26.9759C129.657 27.4928 129.212 27.9116 128.613 28.2321C128.013 28.5526 127.269 28.7129 126.38 28.7129H124.736V32.6211H122.084V21.7339H126.38C127.248 21.7339 127.982 21.8838 128.582 22.1837C129.181 22.4835 129.631 22.8971 129.931 23.4244C130.231 23.9517 130.381 24.5565 130.381 25.2389ZM126.178 26.6037C126.685 26.6037 127.062 26.4848 127.31 26.247C127.558 26.0092 127.682 25.6731 127.682 25.2389C127.682 24.8046 127.558 24.4686 127.31 24.2308C127.062 23.993 126.685 23.8741 126.178 23.8741H124.736V26.6037H126.178ZM136.848 32.6211L134.584 28.5113H133.948V32.6211H131.296V21.7339H135.747C136.605 21.7339 137.334 21.8838 137.934 22.1837C138.544 22.4835 138.999 22.8971 139.299 23.4244C139.599 23.9413 139.749 24.5203 139.749 25.1614C139.749 25.8851 139.542 26.5313 139.128 27.1C138.725 27.6686 138.125 28.0718 137.329 28.3096L139.842 32.6211H136.848ZM133.948 26.6347H135.592C136.078 26.6347 136.44 26.5158 136.678 26.278C136.926 26.0402 137.05 25.7042 137.05 25.2699C137.05 24.8563 136.926 24.5307 136.678 24.2929C136.44 24.0551 136.078 23.9362 135.592 23.9362H133.948V26.6347ZM143.6 21.7339V32.6211H140.948V21.7339H143.6ZM155.277 21.7339L151.415 32.6211H148.096L144.235 21.7339H147.057L149.756 29.9536L152.47 21.7339H155.277ZM162.697 30.698H158.634L157.983 32.6211H155.207L159.146 21.7339H162.217L166.156 32.6211H163.349L162.697 30.698ZM162.015 28.6508L160.666 24.6651L159.332 28.6508H162.015ZM166.44 27.162C166.44 26.0867 166.672 25.1303 167.138 24.2929C167.603 23.445 168.249 22.7885 169.076 22.3232C169.914 21.8476 170.86 21.6098 171.914 21.6098C173.207 21.6098 174.313 21.951 175.233 22.6334C176.153 23.3158 176.769 24.2463 177.079 25.425H174.163C173.946 24.9701 173.636 24.6237 173.233 24.3859C172.84 24.1481 172.39 24.0292 171.883 24.0292C171.067 24.0292 170.405 24.3135 169.898 24.8822C169.392 25.4508 169.138 26.2108 169.138 27.162C169.138 28.1132 169.392 28.8731 169.898 29.4418C170.405 30.0104 171.067 30.2948 171.883 30.2948C172.39 30.2948 172.84 30.1759 173.233 29.9381C173.636 29.7003 173.946 29.3539 174.163 28.899H177.079C176.769 30.0776 176.153 31.0082 175.233 31.6906C174.313 32.3626 173.207 32.6986 171.914 32.6986C170.86 32.6986 169.914 32.466 169.076 32.0007C168.249 31.5251 167.603 30.8686 167.138 30.0311C166.672 29.1936 166.44 28.2373 166.44 27.162ZM187.574 21.7339L183.805 29.023V32.6211H181.153V29.023L177.385 21.7339H180.393L182.503 26.2935L184.596 21.7339H187.574ZM84.9104 36.7339V38.8586H80.4749V41.1539H83.7938V43.2166H80.4749V47.6211H77.8229V36.7339H84.9104ZM91.3912 47.6211L89.1269 43.5113H88.491V47.6211H85.839V36.7339H90.29C91.1482 36.7339 91.8771 36.8838 92.4768 37.1837C93.0868 37.4835 93.5417 37.8971 93.8415 38.4244C94.1414 38.9413 94.2913 39.5203 94.2913 40.1614C94.2913 40.8851 94.0845 41.5313 93.671 42.1C93.2677 42.6686 92.668 43.0718 91.8719 43.3096L94.3844 47.6211H91.3912ZM88.491 41.6347H90.1349C90.6209 41.6347 90.9828 41.5158 91.2206 41.278C91.4687 41.0402 91.5928 40.7042 91.5928 40.2699C91.5928 39.8563 91.4687 39.5307 91.2206 39.2929C90.9828 39.0551 90.6209 38.9362 90.1349 38.9362H88.491V41.6347ZM102.268 45.698H98.2049L97.5535 47.6211H94.7774L98.7166 36.7339H101.787L105.727 47.6211H102.92L102.268 45.698ZM101.586 43.6508L100.237 39.6651L98.9028 43.6508H101.586ZM118.79 36.7339V47.6211H116.138V41.0919L113.703 47.6211H111.563L109.112 41.0764V47.6211H106.46V36.7339H109.593L112.648 44.2712L115.673 36.7339H118.79ZM122.884 38.8586V41.0609H126.435V43.108H122.884V45.4964H126.9V47.6211H120.232V36.7339H126.9V38.8586H122.884ZM143.138 36.7339L140.3 47.6211H137.09L135.353 40.456L133.554 47.6211H130.344L127.583 36.7339H130.421L131.988 44.6589L133.926 36.7339H136.842L138.703 44.6589L140.285 36.7339H143.138ZM149.152 47.7297C148.128 47.7297 147.188 47.4919 146.329 47.0162C145.482 46.5406 144.804 45.8789 144.298 45.0311C143.802 44.173 143.553 43.2114 143.553 42.1465C143.553 41.0815 143.802 40.1252 144.298 39.2773C144.804 38.4295 145.482 37.7678 146.329 37.2922C147.188 36.8166 148.128 36.5788 149.152 36.5788C150.176 36.5788 151.111 36.8166 151.959 37.2922C152.817 37.7678 153.489 38.4295 153.975 39.2773C154.472 40.1252 154.72 41.0815 154.72 42.1465C154.72 43.2114 154.472 44.173 153.975 45.0311C153.479 45.8789 152.807 46.5406 151.959 47.0162C151.111 47.4919 150.176 47.7297 149.152 47.7297ZM149.152 45.3103C150.021 45.3103 150.713 45.0208 151.23 44.4418C151.758 43.8628 152.021 43.0977 152.021 42.1465C152.021 41.1849 151.758 40.4198 151.23 39.8512C150.713 39.2722 150.021 38.9827 149.152 38.9827C148.273 38.9827 147.57 39.267 147.043 39.8357C146.526 40.4043 146.267 41.1746 146.267 42.1465C146.267 43.108 146.526 43.8783 147.043 44.4573C147.57 45.026 148.273 45.3103 149.152 45.3103ZM161.282 47.6211L159.018 43.5113H158.382V47.6211H155.73V36.7339H160.181C161.039 36.7339 161.768 36.8838 162.368 37.1837C162.978 37.4835 163.433 37.8971 163.732 38.4244C164.032 38.9413 164.182 39.5203 164.182 40.1614C164.182 40.8851 163.975 41.5313 163.562 42.1C163.159 42.6686 162.559 43.0718 161.763 43.3096L164.275 47.6211H161.282ZM158.382 41.6347H160.026C160.512 41.6347 160.874 41.5158 161.111 41.278C161.36 41.0402 161.484 40.7042 161.484 40.2699C161.484 39.8563 161.36 39.5307 161.111 39.2929C160.874 39.0551 160.512 38.9362 160.026 38.9362H158.382V41.6347ZM171.694 47.6211L168.034 42.8134V47.6211H165.382V36.7339H168.034V41.5106L171.663 36.7339H174.78L170.562 42.0689L174.935 47.6211H171.694Z" fill="#D1282E"/>
<path d="M85.2826 54.444C85.2826 55.3435 84.9724 56.0931 84.3521 56.6928C83.7421 57.2821 82.8064 57.5768 81.545 57.5768H79.4668V62.0898H78.0555V51.2802H81.545C82.765 51.2802 83.6904 51.5749 84.3211 52.1642C84.9621 52.7535 85.2826 53.5135 85.2826 54.444ZM81.545 56.4136C82.3308 56.4136 82.9098 56.243 83.282 55.9018C83.6542 55.5606 83.8403 55.0747 83.8403 54.444C83.8403 53.1102 83.0752 52.4434 81.545 52.4434H79.4668V56.4136H81.545ZM92.2632 62.0898L89.6887 57.6698H87.9827V62.0898H86.5714V51.2802H90.0609C90.8777 51.2802 91.5653 51.4198 92.1236 51.6989C92.6922 51.9781 93.1161 52.3555 93.3953 52.8311C93.6745 53.3067 93.814 53.8495 93.814 54.4595C93.814 55.2039 93.5969 55.8605 93.1627 56.4291C92.7388 56.9978 92.0977 57.3752 91.2396 57.5613L93.9536 62.0898H92.2632ZM87.9827 56.5377H90.0609C90.826 56.5377 91.3998 56.3516 91.7824 55.9794C92.1649 55.5968 92.3562 55.0902 92.3562 54.4595C92.3562 53.8185 92.1649 53.3222 91.7824 52.9707C91.4102 52.6191 90.8364 52.4434 90.0609 52.4434H87.9827V56.5377ZM100.442 62.1984C99.4396 62.1984 98.5246 61.9658 97.6974 61.5005C96.8703 61.0249 96.2138 60.3684 95.7278 59.5309C95.2522 58.6831 95.0144 57.7319 95.0144 56.6773C95.0144 55.6227 95.2522 54.6766 95.7278 53.8392C96.2138 52.9913 96.8703 52.3348 97.6974 51.8695C98.5246 51.3939 99.4396 51.1561 100.442 51.1561C101.456 51.1561 102.376 51.3939 103.203 51.8695C104.03 52.3348 104.682 52.9862 105.157 53.8236C105.633 54.6611 105.871 55.6123 105.871 56.6773C105.871 57.7422 105.633 58.6934 105.157 59.5309C104.682 60.3684 104.03 61.0249 103.203 61.5005C102.376 61.9658 101.456 62.1984 100.442 62.1984ZM100.442 60.9732C101.197 60.9732 101.874 60.7974 102.474 60.4459C103.084 60.0944 103.56 59.5929 103.901 58.9416C104.252 58.2902 104.428 57.5354 104.428 56.6773C104.428 55.8088 104.252 55.054 103.901 54.413C103.56 53.7616 103.089 53.2602 102.49 52.9086C101.89 52.5571 101.208 52.3813 100.442 52.3813C99.6774 52.3813 98.995 52.5571 98.3953 52.9086C97.7957 53.2602 97.32 53.7616 96.9685 54.413C96.6273 55.054 96.4567 55.8088 96.4567 56.6773C96.4567 57.5354 96.6273 58.2902 96.9685 58.9416C97.32 59.5929 97.7957 60.0944 98.3953 60.4459C99.0053 60.7974 99.6877 60.9732 100.442 60.9732ZM115.457 54.413C115.157 53.7823 114.723 53.2963 114.154 52.9551C113.586 52.6036 112.924 52.4278 112.169 52.4278C111.414 52.4278 110.732 52.6036 110.122 52.9551C109.522 53.2963 109.047 53.7926 108.695 54.444C108.354 55.085 108.183 55.8294 108.183 56.6773C108.183 57.5251 108.354 58.2695 108.695 58.9105C109.047 59.5516 109.522 60.0478 110.122 60.3994C110.732 60.7406 111.414 60.9112 112.169 60.9112C113.224 60.9112 114.092 60.5958 114.775 59.9651C115.457 59.3344 115.855 58.4815 115.969 57.4062H111.657V56.2585H117.473V57.3441C117.391 58.2333 117.111 59.0501 116.636 59.7945C116.16 60.5286 115.535 61.1128 114.759 61.547C113.984 61.9709 113.12 62.1829 112.169 62.1829C111.166 62.1829 110.251 61.9503 109.424 61.485C108.597 61.0094 107.94 60.3529 107.455 59.5154C106.979 58.6779 106.741 57.7319 106.741 56.6773C106.741 55.6227 106.979 54.6766 107.455 53.8392C107.94 52.9913 108.597 52.3348 109.424 51.8695C110.251 51.3939 111.166 51.1561 112.169 51.1561C113.317 51.1561 114.33 51.4405 115.209 52.0091C116.098 52.5778 116.744 53.3791 117.148 54.413H115.457ZM124.566 62.0898L121.991 57.6698H120.285V62.0898H118.874V51.2802H122.363C123.18 51.2802 123.868 51.4198 124.426 51.6989C124.995 51.9781 125.419 52.3555 125.698 52.8311C125.977 53.3067 126.117 53.8495 126.117 54.4595C126.117 55.2039 125.899 55.8605 125.465 56.4291C125.041 56.9978 124.4 57.3752 123.542 57.5613L126.256 62.0898H124.566ZM120.285 56.5377H122.363C123.129 56.5377 123.702 56.3516 124.085 55.9794C124.468 55.5968 124.659 55.0902 124.659 54.4595C124.659 53.8185 124.468 53.3222 124.085 52.9707C123.713 52.6191 123.139 52.4434 122.363 52.4434H120.285V56.5377ZM134.234 59.686H129.519L128.651 62.0898H127.162L131.07 51.3422H132.699L136.591 62.0898H135.102L134.234 59.686ZM133.831 58.5383L131.877 53.0792L129.922 58.5383H133.831ZM148.794 51.3577V62.0898H147.383V54.0873L143.816 62.0898H142.823L139.241 54.0718V62.0898H137.829V51.3577H139.349L143.319 60.2288L147.29 51.3577H148.794Z" fill="#0E588D"/>
<rect x="77.1016" y="6.30078" width="90.7332" height="11.9978" fill="white"/>
<path d="M80.4994 14.5508L83.094 8.72961H84.4245L87.0274 14.5508H85.6137L83.4848 9.41152H84.017L81.8798 14.5508H80.4994ZM81.7967 13.3034L82.1543 12.2805H85.148L85.5139 13.3034H81.7967ZM89.4119 14.6173C88.9296 14.6173 88.5 14.5203 88.123 14.3263C87.746 14.1267 87.4494 13.8522 87.2332 13.503C87.0225 13.1537 86.9172 12.7573 86.9172 12.3138C86.9172 11.8647 87.0225 11.4683 87.2332 11.1246C87.4494 10.7753 87.746 10.5037 88.123 10.3096C88.5 10.1101 88.9296 10.0103 89.4119 10.0103C89.8832 10.0103 90.2934 10.1101 90.6427 10.3096C90.992 10.5037 91.2498 10.7837 91.4161 11.1496L90.4099 11.6901C90.2934 11.4794 90.1465 11.3242 89.9691 11.2244C89.7972 11.1246 89.6087 11.0747 89.4036 11.0747C89.1819 11.0747 88.9823 11.1246 88.8049 11.2244C88.6275 11.3242 88.4861 11.4656 88.3808 11.6485C88.281 11.8315 88.2311 12.0532 88.2311 12.3138C88.2311 12.5744 88.281 12.7961 88.3808 12.9791C88.4861 13.162 88.6275 13.3034 88.8049 13.4032C88.9823 13.503 89.1819 13.5529 89.4036 13.5529C89.6087 13.5529 89.7972 13.5057 89.9691 13.4115C90.1465 13.3117 90.2934 13.1537 90.4099 12.9375L91.4161 13.4863C91.2498 13.8467 90.992 14.1267 90.6427 14.3263C90.2934 14.5203 89.8832 14.6173 89.4119 14.6173ZM93.808 14.6173C93.2813 14.6173 92.8711 14.4843 92.5773 14.2181C92.2834 13.9465 92.1365 13.5446 92.1365 13.0123V9.0872H93.4338V12.9957C93.4338 13.1842 93.4837 13.3311 93.5835 13.4364C93.6833 13.5362 93.8191 13.5861 93.991 13.5861C94.1961 13.5861 94.3707 13.5307 94.5149 13.4198L94.8642 14.3346C94.7311 14.4288 94.5703 14.5009 94.3818 14.5508C94.1989 14.5951 94.0076 14.6173 93.808 14.6173ZM91.4463 11.1745V10.1766H94.5481V11.1745H91.4463ZM95.3429 14.5508V10.0768H96.6402V14.5508H95.3429ZM95.9915 9.4531C95.7532 9.4531 95.5591 9.3838 95.4094 9.2452C95.2597 9.1066 95.1849 8.93474 95.1849 8.72961C95.1849 8.52448 95.2597 8.35262 95.4094 8.21402C95.5591 8.07542 95.7532 8.00612 95.9915 8.00612C96.2299 8.00612 96.424 8.07265 96.5737 8.20571C96.7234 8.33322 96.7982 8.49954 96.7982 8.70466C96.7982 8.92088 96.7234 9.10106 96.5737 9.2452C96.4295 9.3838 96.2355 9.4531 95.9915 9.4531ZM98.8088 14.5508L96.9294 10.0768H98.2683L99.8317 13.9271H99.1664L100.788 10.0768H102.035L100.148 14.5508H98.8088ZM104.414 14.6173C103.904 14.6173 103.455 14.5175 103.067 14.3179C102.684 14.1184 102.388 13.8467 102.177 13.503C101.966 13.1537 101.861 12.7573 101.861 12.3138C101.861 11.8647 101.963 11.4683 102.169 11.1246C102.379 10.7753 102.665 10.5037 103.025 10.3096C103.385 10.1101 103.793 10.0103 104.248 10.0103C104.686 10.0103 105.079 10.1045 105.428 10.293C105.783 10.476 106.063 10.7421 106.268 11.0913C106.473 11.4351 106.576 11.8481 106.576 12.3304C106.576 12.3803 106.573 12.4385 106.568 12.5051C106.562 12.566 106.557 12.6243 106.551 12.6797H102.917V11.9229H105.869L105.37 12.1475C105.37 11.9146 105.323 11.7123 105.229 11.5404C105.135 11.3685 105.004 11.2355 104.838 11.1412C104.672 11.0414 104.478 10.9916 104.256 10.9916C104.034 10.9916 103.837 11.0414 103.665 11.1412C103.499 11.2355 103.369 11.3713 103.275 11.5487C103.18 11.7206 103.133 11.9257 103.133 12.1641V12.3637C103.133 12.6076 103.186 12.8238 103.291 13.0123C103.402 13.1953 103.555 13.3367 103.749 13.4364C103.948 13.5307 104.181 13.5778 104.447 13.5778C104.686 13.5778 104.893 13.5418 105.071 13.4697C105.254 13.3976 105.42 13.2895 105.57 13.1454L106.26 13.8938C106.055 14.1267 105.797 14.3068 105.487 14.4344C105.176 14.5563 104.819 14.6173 104.414 14.6173ZM109.387 14.5508V8.72961H111.907C112.428 8.72961 112.877 8.81554 113.254 8.98741C113.631 9.15372 113.922 9.39489 114.127 9.71089C114.333 10.0269 114.435 10.4039 114.435 10.8419C114.435 11.2743 114.333 11.6485 114.127 11.9645C113.922 12.2805 113.631 12.5245 113.254 12.6963C112.877 12.8626 112.428 12.9458 111.907 12.9458H110.136L110.735 12.3387V14.5508H109.387ZM110.735 12.4884L110.136 11.8481H111.832C112.248 11.8481 112.558 11.7594 112.764 11.582C112.969 11.4046 113.071 11.1579 113.071 10.8419C113.071 10.5203 112.969 10.2708 112.764 10.0934C112.558 9.91602 112.248 9.82732 111.832 9.82732H110.136L110.735 9.18699V12.4884ZM117.76 14.5508V13.6776L117.676 13.4863V11.9229C117.676 11.6457 117.591 11.4295 117.419 11.2743C117.252 11.1191 116.995 11.0414 116.645 11.0414C116.407 11.0414 116.171 11.0803 115.938 11.1579C115.711 11.2299 115.517 11.3297 115.356 11.4572L114.891 10.5508C115.135 10.3789 115.428 10.2459 115.772 10.1516C116.116 10.0574 116.465 10.0103 116.82 10.0103C117.502 10.0103 118.031 10.171 118.408 10.4926C118.785 10.8141 118.974 11.3159 118.974 11.9978V14.5508H117.76ZM116.396 14.6173C116.047 14.6173 115.747 14.5591 115.498 14.4427C115.248 14.3207 115.057 14.1572 114.924 13.952C114.791 13.7469 114.724 13.5168 114.724 13.2618C114.724 12.9957 114.788 12.7629 114.916 12.5633C115.049 12.3637 115.257 12.2085 115.539 12.0976C115.822 11.9812 116.191 11.9229 116.645 11.9229H117.834V12.6797H116.787C116.482 12.6797 116.271 12.7296 116.155 12.8294C116.044 12.9292 115.988 13.0539 115.988 13.2036C115.988 13.3699 116.052 13.503 116.18 13.6028C116.313 13.697 116.493 13.7441 116.72 13.7441C116.936 13.7441 117.13 13.6942 117.302 13.5944C117.474 13.4891 117.599 13.3367 117.676 13.1371L117.876 13.7358C117.782 14.0241 117.61 14.2431 117.36 14.3928C117.111 14.5425 116.789 14.6173 116.396 14.6173ZM119.898 14.5508V10.0768H121.137V11.3408L120.963 10.9749C121.096 10.6589 121.309 10.4205 121.603 10.2597C121.897 10.0934 122.255 10.0103 122.676 10.0103V11.2078C122.62 11.2022 122.571 11.1994 122.526 11.1994C122.482 11.1939 122.435 11.1911 122.385 11.1911C122.03 11.1911 121.742 11.2937 121.52 11.4988C121.304 11.6984 121.196 12.0116 121.196 12.4385V14.5508H119.898ZM125.182 14.6173C124.655 14.6173 124.245 14.4843 123.951 14.2181C123.657 13.9465 123.51 13.5446 123.51 13.0123V9.0872H124.807V12.9957C124.807 13.1842 124.857 13.3311 124.957 13.4364C125.057 13.5362 125.193 13.5861 125.365 13.5861C125.57 13.5861 125.744 13.5307 125.888 13.4198L126.238 14.3346C126.105 14.4288 125.944 14.5009 125.755 14.5508C125.572 14.5951 125.381 14.6173 125.182 14.6173ZM122.82 11.1745V10.1766H125.922V11.1745H122.82ZM126.716 14.5508V10.0768H128.014V14.5508H126.716ZM127.365 9.4531C127.127 9.4531 126.933 9.3838 126.783 9.2452C126.633 9.1066 126.558 8.93474 126.558 8.72961C126.558 8.52448 126.633 8.35262 126.783 8.21402C126.933 8.07542 127.127 8.00612 127.365 8.00612C127.604 8.00612 127.798 8.07265 127.947 8.20571C128.097 8.33322 128.172 8.49954 128.172 8.70466C128.172 8.92088 128.097 9.10106 127.947 9.2452C127.803 9.3838 127.609 9.4531 127.365 9.4531ZM131.13 14.6173C130.648 14.6173 130.218 14.5203 129.841 14.3263C129.464 14.1267 129.168 13.8522 128.952 13.503C128.741 13.1537 128.636 12.7573 128.636 12.3138C128.636 11.8647 128.741 11.4683 128.952 11.1246C129.168 10.7753 129.464 10.5037 129.841 10.3096C130.218 10.1101 130.648 10.0103 131.13 10.0103C131.602 10.0103 132.012 10.1101 132.361 10.3096C132.71 10.5037 132.968 10.7837 133.135 11.1496L132.128 11.6901C132.012 11.4794 131.865 11.3242 131.688 11.2244C131.516 11.1246 131.327 11.0747 131.122 11.0747C130.9 11.0747 130.701 11.1246 130.523 11.2244C130.346 11.3242 130.205 11.4656 130.099 11.6485C129.999 11.8315 129.95 12.0532 129.95 12.3138C129.95 12.5744 129.999 12.7961 130.099 12.9791C130.205 13.162 130.346 13.3034 130.523 13.4032C130.701 13.503 130.9 13.5529 131.122 13.5529C131.327 13.5529 131.516 13.5057 131.688 13.4115C131.865 13.3117 132.012 13.1537 132.128 12.9375L133.135 13.4863C132.968 13.8467 132.71 14.1267 132.361 14.3263C132.012 14.5203 131.602 14.6173 131.13 14.6173ZM133.608 14.5508V10.0768H134.905V14.5508H133.608ZM134.256 9.4531C134.018 9.4531 133.824 9.3838 133.674 9.2452C133.525 9.1066 133.45 8.93474 133.45 8.72961C133.45 8.52448 133.525 8.35262 133.674 8.21402C133.824 8.07542 134.018 8.00612 134.256 8.00612C134.495 8.00612 134.689 8.07265 134.838 8.20571C134.988 8.33322 135.063 8.49954 135.063 8.70466C135.063 8.92088 134.988 9.10106 134.838 9.2452C134.694 9.3838 134.5 9.4531 134.256 9.4531ZM138.504 14.6173C138.127 14.6173 137.797 14.5341 137.514 14.3678C137.232 14.2015 137.01 13.9493 136.849 13.6111C136.694 13.2674 136.616 12.8349 136.616 12.3138C136.616 11.7871 136.691 11.3547 136.841 11.0165C136.99 10.6783 137.207 10.4261 137.489 10.2597C137.772 10.0934 138.11 10.0103 138.504 10.0103C138.925 10.0103 139.302 10.1073 139.635 10.3013C139.973 10.4898 140.239 10.7559 140.433 11.0997C140.633 11.4434 140.733 11.8481 140.733 12.3138C140.733 12.785 140.633 13.1925 140.433 13.5362C140.239 13.88 139.973 14.1461 139.635 14.3346C139.302 14.5231 138.925 14.6173 138.504 14.6173ZM135.859 16.1641V10.0768H137.099V10.9916L137.074 12.3221L137.157 13.6443V16.1641H135.859ZM138.279 13.5529C138.496 13.5529 138.687 13.503 138.853 13.4032C139.025 13.3034 139.161 13.162 139.261 12.9791C139.366 12.7906 139.419 12.5688 139.419 12.3138C139.419 12.0532 139.366 11.8315 139.261 11.6485C139.161 11.4656 139.025 11.3242 138.853 11.2244C138.687 11.1246 138.496 11.0747 138.279 11.0747C138.063 11.0747 137.869 11.1246 137.697 11.2244C137.525 11.3242 137.39 11.4656 137.29 11.6485C137.19 11.8315 137.14 12.0532 137.14 12.3138C137.14 12.5688 137.19 12.7906 137.29 12.9791C137.39 13.162 137.525 13.3034 137.697 13.4032C137.869 13.503 138.063 13.5529 138.279 13.5529ZM144.023 14.5508V13.6776L143.94 13.4863V11.9229C143.94 11.6457 143.854 11.4295 143.682 11.2743C143.515 11.1191 143.258 11.0414 142.908 11.0414C142.67 11.0414 142.434 11.0803 142.202 11.1579C141.974 11.2299 141.78 11.3297 141.619 11.4572L141.154 10.5508C141.398 10.3789 141.692 10.2459 142.035 10.1516C142.379 10.0574 142.728 10.0103 143.083 10.0103C143.765 10.0103 144.294 10.171 144.671 10.4926C145.048 10.8141 145.237 11.3159 145.237 11.9978V14.5508H144.023ZM142.659 14.6173C142.31 14.6173 142.01 14.5591 141.761 14.4427C141.511 14.3207 141.32 14.1572 141.187 13.952C141.054 13.7469 140.987 13.5168 140.987 13.2618C140.987 12.9957 141.051 12.7629 141.179 12.5633C141.312 12.3637 141.52 12.2085 141.802 12.0976C142.085 11.9812 142.454 11.9229 142.908 11.9229H144.098V12.6797H143.05C142.745 12.6797 142.534 12.7296 142.418 12.8294C142.307 12.9292 142.251 13.0539 142.251 13.2036C142.251 13.3699 142.315 13.503 142.443 13.6028C142.576 13.697 142.756 13.7441 142.983 13.7441C143.199 13.7441 143.394 13.6942 143.565 13.5944C143.737 13.4891 143.862 13.3367 143.94 13.1371L144.139 13.7358C144.045 14.0241 143.873 14.2431 143.624 14.3928C143.374 14.5425 143.053 14.6173 142.659 14.6173ZM148.881 10.0103C149.236 10.0103 149.552 10.0823 149.829 10.2265C150.112 10.3651 150.333 10.5813 150.494 10.8751C150.655 11.1634 150.735 11.5349 150.735 11.9895V14.5508H149.438V12.189C149.438 11.8287 149.358 11.5626 149.197 11.3907C149.042 11.2189 148.82 11.1329 148.532 11.1329C148.326 11.1329 148.141 11.1773 147.974 11.266C147.814 11.3491 147.686 11.4794 147.592 11.6568C147.503 11.8342 147.459 12.0615 147.459 12.3387V14.5508H146.162V10.0768H147.401V11.3159L147.168 10.9417C147.329 10.6423 147.559 10.4122 147.858 10.2514C148.157 10.0907 148.498 10.0103 148.881 10.0103ZM153.491 14.6173C152.965 14.6173 152.554 14.4843 152.261 14.2181C151.967 13.9465 151.82 13.5446 151.82 13.0123V9.0872H153.117V12.9957C153.117 13.1842 153.167 13.3311 153.267 13.4364C153.367 13.5362 153.502 13.5861 153.674 13.5861C153.879 13.5861 154.054 13.5307 154.198 13.4198L154.547 14.3346C154.414 14.4288 154.254 14.5009 154.065 14.5508C153.882 14.5951 153.691 14.6173 153.491 14.6173ZM151.13 11.1745V10.1766H154.231V11.1745H151.13ZM159.261 14.6173C158.784 14.6173 158.36 14.5175 157.988 14.3179C157.622 14.1184 157.331 13.8467 157.115 13.503C156.904 13.1537 156.799 12.7573 156.799 12.3138C156.799 11.8647 156.904 11.4683 157.115 11.1246C157.331 10.7753 157.622 10.5037 157.988 10.3096C158.36 10.1101 158.784 10.0103 159.261 10.0103C159.732 10.0103 160.153 10.1101 160.525 10.3096C160.896 10.5037 161.187 10.7726 161.398 11.1163C161.609 11.46 161.714 11.8592 161.714 12.3138C161.714 12.7573 161.609 13.1537 161.398 13.503C161.187 13.8467 160.896 14.1184 160.525 14.3179C160.153 14.5175 159.732 14.6173 159.261 14.6173ZM159.261 13.5529C159.477 13.5529 159.671 13.503 159.843 13.4032C160.015 13.3034 160.15 13.162 160.25 12.9791C160.35 12.7906 160.4 12.5688 160.4 12.3138C160.4 12.0532 160.35 11.8315 160.25 11.6485C160.15 11.4656 160.015 11.3242 159.843 11.2244C159.671 11.1246 159.477 11.0747 159.261 11.0747C159.044 11.0747 158.85 11.1246 158.679 11.2244C158.507 11.3242 158.368 11.4656 158.263 11.6485C158.163 11.8315 158.113 12.0532 158.113 12.3138C158.113 12.5688 158.163 12.7906 158.263 12.9791C158.368 13.162 158.507 13.3034 158.679 13.4032C158.85 13.503 159.044 13.5529 159.261 13.5529ZM162.49 14.5508V9.977C162.49 9.4725 162.639 9.07056 162.939 8.77119C163.238 8.46627 163.665 8.31381 164.219 8.31381C164.408 8.31381 164.588 8.33322 164.76 8.37202C164.937 8.41083 165.087 8.47182 165.209 8.55498L164.868 9.49468C164.796 9.44478 164.715 9.40597 164.627 9.37826C164.538 9.35054 164.444 9.33668 164.344 9.33668C164.155 9.33668 164.009 9.39211 163.903 9.50299C163.803 9.60833 163.754 9.76911 163.754 9.98532V10.4011L163.787 10.9583V14.5508H162.49ZM161.799 11.1745V10.1766H164.901V11.1745H161.799Z" fill="#0A2540"/>
</svg>
