<?xml version="1.0" encoding="UTF-8"?>
<svg xmlns="http://www.w3.org/2000/svg" width="21" height="21" viewBox="0 0 21 21" fill="none">
  <path d="M18.7237 10.3595C18.721 12.4109 17.9684 14.3905 16.6075 15.9254C15.2466 17.4604 13.3715 18.4447 11.3352 18.6931C11.2899 18.6982 11.244 18.6936 11.2005 18.6797C11.157 18.6658 11.117 18.6429 11.0831 18.6124C11.0491 18.5819 11.0221 18.5445 11.0036 18.5028C10.9852 18.461 10.9758 18.4159 10.9761 18.3702V12.2964H12.913C13.0015 12.2966 13.0891 12.2786 13.1703 12.2435C13.2516 12.2085 13.3248 12.157 13.3853 12.0925C13.4459 12.0279 13.4925 11.9516 13.5223 11.8683C13.5521 11.7849 13.5645 11.6964 13.5586 11.608C13.5443 11.442 13.4678 11.2876 13.3442 11.1757C13.2207 11.0639 13.0594 11.0029 12.8928 11.0052H10.9761V9.06828C10.9761 8.72581 11.1121 8.39738 11.3543 8.15522C11.5964 7.91306 11.9249 7.77701 12.2673 7.77701H13.5586C13.6471 7.77721 13.7347 7.7592 13.816 7.72412C13.8972 7.68903 13.9704 7.63761 14.031 7.57305C14.0915 7.50849 14.1381 7.43217 14.1679 7.34884C14.1977 7.2655 14.2101 7.17692 14.2042 7.08861C14.19 6.9223 14.1131 6.7676 13.9893 6.65572C13.8654 6.54384 13.7037 6.48309 13.5368 6.48575H12.2673C11.5824 6.48575 10.9255 6.75784 10.4412 7.24215C9.9569 7.72647 9.68481 8.38335 9.68481 9.06828V11.0052H7.74791C7.65941 11.005 7.5718 11.023 7.49055 11.0581C7.40929 11.0932 7.33612 11.1446 7.27557 11.2091C7.21502 11.2737 7.16839 11.35 7.13858 11.4334C7.10877 11.5167 7.09642 11.6053 7.10228 11.6936C7.11656 11.8599 7.19338 12.0146 7.31725 12.1265C7.44112 12.2384 7.60281 12.2991 7.7697 12.2964H9.68481V18.3718C9.68509 18.4174 9.67572 18.4625 9.65732 18.5042C9.63893 18.5458 9.61192 18.5832 9.57807 18.6136C9.54423 18.6441 9.50431 18.6671 9.46095 18.6811C9.41759 18.695 9.37176 18.6997 9.32649 18.6947C7.23573 18.44 5.31675 17.4098 3.94939 15.8078C2.58203 14.2058 1.86594 12.1488 1.94287 10.044C2.10428 5.68597 5.63427 2.14306 9.99552 1.97358C11.1246 1.92985 12.251 2.11429 13.3072 2.51589C14.3634 2.91748 15.3277 3.52797 16.1426 4.31085C16.9574 5.09373 17.6059 6.0329 18.0494 7.0722C18.4929 8.1115 18.7222 9.22958 18.7237 10.3595Z" fill="#425466"></path>
</svg>
