<?xml version="1.0" encoding="UTF-8"?>
<svg xmlns="http://www.w3.org/2000/svg" width="30" height="30" viewBox="0 0 30 30" fill="none">
  <g id="game-controller-fill">
    <path id="Vector" d="M28.9969 20.3611C28.9974 20.3556 28.9974 20.3501 28.9969 20.3447L27.0762 10.481C27.0762 10.474 27.0762 10.4669 27.0762 10.4599C26.7797 8.84044 25.925 7.37609 24.6608 6.32145C23.3965 5.2668 21.8026 4.68856 20.1563 4.68726H9.83086C8.17986 4.68662 6.5815 5.26815 5.3169 6.32955C4.0523 7.39096 3.20244 8.86428 2.9168 10.4904L1.00547 20.3447C1.00491 20.3501 1.00491 20.3556 1.00547 20.3611C0.849897 21.2445 0.979935 22.1545 1.37671 22.9589C1.77348 23.7634 2.41633 24.4204 3.21192 24.8347C4.00751 25.2489 4.91444 25.3988 5.80101 25.2626C6.68759 25.1264 7.50767 24.7111 8.14219 24.0771L8.18321 24.0337L12.8344 18.7498H17.1703L21.8238 24.0337C21.8367 24.049 21.8508 24.063 21.8648 24.0771C22.6556 24.8662 23.7266 25.3102 24.8438 25.3123C25.4595 25.3119 26.0678 25.1767 26.6258 24.9161C27.1837 24.6556 27.6779 24.2761 28.0736 23.8043C28.4693 23.3324 28.7569 22.7797 28.9162 22.1849C29.0755 21.59 29.1026 20.9675 28.9957 20.3611H28.9969ZM12.1875 13.1248H11.25V14.0623C11.25 14.3109 11.1512 14.5494 10.9754 14.7252C10.7996 14.901 10.5611 14.9998 10.3125 14.9998C10.0639 14.9998 9.82541 14.901 9.64959 14.7252C9.47378 14.5494 9.375 14.3109 9.375 14.0623V13.1248H8.4375C8.18886 13.1248 7.95041 13.026 7.77459 12.8502C7.59878 12.6744 7.5 12.4359 7.5 12.1873C7.5 11.9386 7.59878 11.7002 7.77459 11.5243C7.95041 11.3485 8.18886 11.2498 8.4375 11.2498H9.375V10.3123C9.375 10.0636 9.47378 9.82516 9.64959 9.64934C9.82541 9.47353 10.0639 9.37476 10.3125 9.37476C10.5611 9.37476 10.7996 9.47353 10.9754 9.64934C11.1512 9.82516 11.25 10.0636 11.25 10.3123V11.2498H12.1875C12.4361 11.2498 12.6746 11.3485 12.8504 11.5243C13.0262 11.7002 13.125 11.9386 13.125 12.1873C13.125 12.4359 13.0262 12.6744 12.8504 12.8502C12.6746 13.026 12.4361 13.1248 12.1875 13.1248ZM16.875 12.1873C16.875 11.9386 16.9738 11.7002 17.1496 11.5243C17.3254 11.3485 17.5639 11.2498 17.8125 11.2498H20.625C20.8736 11.2498 21.1121 11.3485 21.2879 11.5243C21.4637 11.7002 21.5625 11.9386 21.5625 12.1873C21.5625 12.4359 21.4637 12.6744 21.2879 12.8502C21.1121 13.026 20.8736 13.1248 20.625 13.1248H17.8125C17.5639 13.1248 17.3254 13.026 17.1496 12.8502C16.9738 12.6744 16.875 12.4359 16.875 12.1873ZM26.7621 22.4376C26.5865 22.6905 26.3625 22.9059 26.103 23.0715C25.8435 23.237 25.5537 23.3494 25.2504 23.4021C24.8835 23.4663 24.5066 23.4425 24.1507 23.3327C23.7949 23.2228 23.4701 23.0302 23.2031 22.7705L19.6641 18.7498H20.1563C21.3532 18.7499 22.5303 18.4445 23.5762 17.8625C24.622 17.2805 25.502 16.4412 26.1328 15.424L27.157 20.6974C27.2092 20.9992 27.2011 21.3083 27.1334 21.607C27.0656 21.9056 26.9394 22.1879 26.7621 22.4376Z" fill="#645BFF"></path>
  </g>
</svg>
