<svg width="21" height="22" viewBox="0 0 21 22" fill="none" xmlns="http://www.w3.org/2000/svg">
<path fill-rule="evenodd" clip-rule="evenodd" d="M8.0511 13.845V7.67202C10.0599 8.7032 11.6157 9.69933 13.4558 10.7733C11.9381 11.6915 10.0599 12.7217 8.0511 13.845ZM19.2462 4.60191C18.8997 4.10387 18.3091 3.71619 17.6803 3.58784C15.8322 3.20499 4.30267 3.2039 2.45557 3.58784C1.95136 3.69096 1.50238 3.9402 1.11669 4.32744C-0.508438 5.97293 0.000798814 14.7972 0.392517 16.2266C0.557238 16.8453 0.770181 17.2915 1.03836 17.5844C1.38387 17.9716 1.85694 18.2382 2.40032 18.3578C3.92199 18.7012 11.7614 18.8932 17.6482 18.4094C18.1906 18.3063 18.6707 18.031 19.0493 17.6273C20.5519 15.9884 20.4495 6.66864 19.2462 4.60191Z" fill="#425466"/>
</svg>
