<?xml version="1.0" encoding="UTF-8"?>
<svg xmlns="http://www.w3.org/2000/svg" width="30" height="30" viewBox="0 0 30 30" fill="none">
  <g id="hand-coins-fill">
    <path id="Vector" d="M15.0105 6.72427C15.0631 5.99672 15.3034 5.29523 15.7079 4.68826C16.1125 4.08129 16.6675 3.58959 17.3188 3.26115C17.9702 2.93272 18.6955 2.77877 19.4241 2.81435C20.1527 2.84992 20.8596 3.07379 21.4758 3.46411C21.5462 3.51021 21.603 3.57443 21.64 3.65003C21.6771 3.72563 21.6931 3.80982 21.6864 3.89374C21.6797 3.97767 21.6505 4.05824 21.6019 4.12699C21.5533 4.19573 21.487 4.25012 21.4102 4.28443C20.3389 4.76638 19.4296 5.54735 18.7914 6.53352C18.1532 7.5197 17.8133 8.66914 17.8125 9.8438C17.8125 9.98091 17.8125 10.118 17.8266 10.2528C17.833 10.338 17.8161 10.4233 17.7776 10.4995C17.7391 10.5758 17.6805 10.6401 17.6081 10.6854C17.5357 10.7308 17.4523 10.7555 17.3669 10.7569C17.2814 10.7583 17.1973 10.7364 17.1234 10.6934C16.4328 10.2984 15.868 9.7161 15.4941 9.0138C15.1203 8.31149 14.9526 7.51778 15.0105 6.72427ZM28.125 18.8215C28.1267 19.3572 27.9783 19.8827 27.6966 20.3384C27.4149 20.794 27.0112 21.1617 26.5312 21.3997L26.4797 21.4231L21.9293 23.3614C21.8843 23.3812 21.8376 23.3969 21.7898 23.4083L14.2898 25.2833C14.2156 25.3024 14.1392 25.3122 14.0625 25.3126H1.875C1.37772 25.3126 0.900805 25.115 0.549175 24.7634C0.197544 24.4117 0 23.9348 0 23.4376V18.7501C0 18.2528 0.197544 17.7759 0.549175 17.4242C0.900805 17.0726 1.37772 16.8751 1.875 16.8751H5.23711L7.88789 14.2231C8.23547 13.874 8.6488 13.5972 9.10398 13.4087C9.55917 13.2202 10.0472 13.1238 10.5398 13.1251H16.4062C16.9015 13.125 17.3902 13.237 17.836 13.4528C18.2817 13.6685 18.6729 13.9823 18.9801 14.3707C19.2873 14.7591 19.5026 15.2119 19.6099 15.6954C19.7172 16.1788 19.7137 16.6803 19.5996 17.1622L24.5027 16.0348C24.9296 15.9218 25.3767 15.9083 25.8096 15.9953C26.2425 16.0824 26.6496 16.2677 26.9996 16.5369C27.3495 16.8061 27.633 17.1522 27.8281 17.5483C28.0233 17.9444 28.1248 18.38 28.125 18.8215ZM26.25 18.8215C26.2499 18.6665 26.214 18.5136 26.1452 18.3747C26.0764 18.2358 25.9765 18.1146 25.8533 18.0206C25.7301 17.9265 25.5869 17.8621 25.4348 17.8323C25.2827 17.8025 25.1257 17.8082 24.9762 17.8489L24.9398 17.8583L17.0883 19.6641C17.0194 19.6795 16.9491 19.6874 16.8785 19.6876H13.125C12.8764 19.6876 12.6379 19.5888 12.4621 19.413C12.2863 19.2371 12.1875 18.9987 12.1875 18.7501C12.1875 18.5014 12.2863 18.263 12.4621 18.0871C12.6379 17.9113 12.8764 17.8126 13.125 17.8126H16.4062C16.7792 17.8126 17.1369 17.6644 17.4006 17.4007C17.6643 17.1369 17.8125 16.7793 17.8125 16.4063C17.8125 16.0333 17.6643 15.6757 17.4006 15.4119C17.1369 15.1482 16.7792 15.0001 16.4062 15.0001H10.5398C10.2935 14.9993 10.0495 15.0474 9.82197 15.1418C9.59444 15.2362 9.38793 15.3748 9.21445 15.5497L6.5625 18.2004V23.4376H13.9453L21.2613 21.6083L25.7145 19.7122C25.8765 19.6268 26.0121 19.4986 26.1066 19.3416C26.201 19.1846 26.2506 19.0047 26.25 18.8215ZM19.6875 9.8438C19.6875 10.6782 19.9349 11.4938 20.3985 12.1876C20.862 12.8814 21.5209 13.4221 22.2918 13.7414C23.0627 14.0607 23.9109 14.1443 24.7293 13.9815C25.5476 13.8187 26.2994 13.4169 26.8894 12.8269C27.4794 12.2369 27.8812 11.4852 28.0439 10.6668C28.2067 9.84848 28.1232 9.00023 27.8039 8.22936C27.4846 7.45848 26.9438 6.7996 26.2501 6.33604C25.5563 5.87248 24.7406 5.62505 23.9062 5.62505C22.7874 5.62505 21.7143 6.06953 20.9231 6.8607C20.132 7.65186 19.6875 8.72492 19.6875 9.8438Z" fill="#645BFF"></path>
  </g>
</svg>
