<?xml version="1.0" encoding="UTF-8"?>
<svg xmlns="http://www.w3.org/2000/svg" width="21" height="22" viewBox="0 0 21 22" fill="none">
  <path d="M17.7731 2.31738H3.56922C3.22675 2.31738 2.89832 2.45343 2.65616 2.69559C2.414 2.93774 2.27795 3.26618 2.27795 3.60865V17.8126C2.27795 18.155 2.414 18.4835 2.65616 18.7256C2.89832 18.9678 3.22675 19.1038 3.56922 19.1038H17.7731C18.1156 19.1038 18.444 18.9678 18.6862 18.7256C18.9284 18.4835 19.0644 18.155 19.0644 17.8126V3.60865C19.0644 3.26618 18.9284 2.93774 18.6862 2.69559C18.444 2.45343 18.1156 2.31738 17.7731 2.31738ZM8.08865 14.5844C8.08865 14.7556 8.02063 14.9199 7.89955 15.0409C7.77847 15.162 7.61425 15.23 7.44302 15.23C7.27178 15.23 7.10756 15.162 6.98649 15.0409C6.86541 14.9199 6.79738 14.7556 6.79738 14.5844V9.41934C6.79738 9.24811 6.86541 9.08389 6.98649 8.96281C7.10756 8.84173 7.27178 8.77371 7.44302 8.77371C7.61425 8.77371 7.77847 8.84173 7.89955 8.96281C8.02063 9.08389 8.08865 9.24811 8.08865 9.41934V14.5844ZM7.44302 8.12808C7.25147 8.12808 7.06424 8.07128 6.90497 7.96486C6.74571 7.85845 6.62159 7.7072 6.54829 7.53024C6.47499 7.35328 6.45581 7.15855 6.49318 6.97069C6.53054 6.78283 6.62278 6.61027 6.75822 6.47483C6.89366 6.33939 7.06622 6.24716 7.25408 6.20979C7.44194 6.17242 7.63666 6.1916 7.81363 6.2649C7.99059 6.3382 8.14184 6.46233 8.24825 6.62159C8.35467 6.78085 8.41147 6.96809 8.41147 7.15963C8.41147 7.41648 8.30943 7.66281 8.12781 7.84443C7.94619 8.02604 7.69986 8.12808 7.44302 8.12808ZM15.1906 14.5844C15.1906 14.7556 15.1226 14.9199 15.0015 15.0409C14.8804 15.162 14.7162 15.23 14.545 15.23C14.3737 15.23 14.2095 15.162 14.0884 15.0409C13.9674 14.9199 13.8993 14.7556 13.8993 14.5844V11.6791C13.8993 11.251 13.7293 10.8404 13.4266 10.5377C13.1239 10.235 12.7133 10.065 12.2853 10.065C11.8572 10.065 11.4466 10.235 11.1439 10.5377C10.8412 10.8404 10.6712 11.251 10.6712 11.6791V14.5844C10.6712 14.7556 10.6032 14.9199 10.4821 15.0409C10.361 15.162 10.1968 15.23 10.0255 15.23C9.85431 15.23 9.6901 15.162 9.56902 15.0409C9.44794 14.9199 9.37991 14.7556 9.37991 14.5844V9.41934C9.38072 9.2612 9.43953 9.10885 9.54521 8.99119C9.65088 8.87354 9.79606 8.79876 9.95322 8.78104C10.1104 8.76333 10.2686 8.80391 10.3978 8.89508C10.527 8.98626 10.6182 9.12169 10.6542 9.27569C11.091 8.9794 11.6002 8.80768 12.1272 8.77897C12.6542 8.75026 13.179 8.86564 13.6454 9.11272C14.1118 9.3598 14.502 9.72924 14.7743 10.1814C15.0465 10.6335 15.1904 11.1513 15.1906 11.6791V14.5844Z" fill="#425466"></path>
</svg>
