<svg width="97" height="18" viewBox="0 0 97 18" fill="none" xmlns="http://www.w3.org/2000/svg">
<path d="M25.882 13.2438H23.5786L22.957 4.12354H25.1926C25.2533 7.36191 25.2726 9.68038 25.2512 11.0784H25.2782C25.5488 10.2036 26.4179 7.8856 27.8858 4.12354H30.1616C30.2279 7.81291 30.233 10.114 30.1764 11.0242H30.2029C30.396 10.3341 31.2392 8.03406 32.7335 4.12354H34.8611L30.8362 13.2438H28.5741C28.4977 10.2532 28.4589 8.54956 28.4574 8.13235C28.4569 7.71513 28.4819 7.14588 28.5318 6.42408H28.5048C28.1645 7.44382 27.8256 8.37243 27.4904 9.21146L25.882 13.2438Z" fill="black"/>
<path d="M37.2031 13.2536L37.9887 8.78249C38.1024 8.13133 38.2083 7.42591 38.3056 6.66725H40.1021L40.0333 7.59638H40.0868C40.6997 6.87816 41.4558 6.5188 42.3535 6.5188C43.0907 6.5188 43.6333 6.76964 43.9808 7.26978C44.3293 7.77043 44.423 8.47585 44.263 9.38757L43.5849 13.253H41.5062L42.138 9.65735C42.3097 8.67806 42.0335 8.18867 41.3096 8.18867C41.0151 8.18867 40.7318 8.30026 40.4597 8.52551C40.1877 8.74973 40.016 9.06865 39.9431 9.48125L39.2813 13.2525H37.2031V13.2536Z" fill="black"/>
<path d="M44.3359 12.9305L44.9713 11.4485C45.1878 11.5873 45.4629 11.7055 45.7976 11.8018C46.1314 11.898 46.4345 11.9472 46.7071 11.9472C47.3057 11.9472 47.6369 11.767 47.7 11.4081C47.7311 11.2284 47.6832 11.0892 47.5554 10.9904C47.4275 10.8926 47.188 10.7841 46.838 10.6674C45.6214 10.2676 45.0925 9.61179 45.253 8.70058C45.3641 8.06786 45.707 7.5457 46.2817 7.13515C46.8563 6.72459 47.5533 6.5188 48.3705 6.5188C49.0858 6.5188 49.6972 6.64934 50.2062 6.9099L49.5938 8.33763C49.119 8.08577 48.6502 7.96035 48.1846 7.96035C47.6486 7.96035 47.3495 8.13594 47.2884 8.48558C47.2609 8.64274 47.3195 8.77583 47.4631 8.88334C47.6073 8.99084 47.8712 9.1096 48.2549 9.24014C48.8459 9.43723 49.2606 9.69882 49.498 10.0244C49.7354 10.35 49.8108 10.7616 49.7232 11.2607C49.6086 11.9118 49.2631 12.4309 48.6859 12.82C48.1081 13.208 47.3633 13.402 46.4518 13.402C45.6117 13.4015 44.9066 13.2443 44.3359 12.9305Z" fill="black"/>
<path d="M51.828 5.42758L53.9495 4.87573L53.6352 6.66692H55.1229L54.8534 8.20267H53.3657L52.9591 10.5196C52.8832 10.9552 52.8924 11.2614 52.9892 11.4385C53.0855 11.6161 53.2785 11.7052 53.5695 11.7052C53.8374 11.7052 54.0509 11.6827 54.2114 11.6376L53.9475 13.2143C53.5995 13.3397 53.1374 13.4022 52.5607 13.4022C51.9345 13.4022 51.4561 13.2148 51.1245 12.8396C50.7933 12.4649 50.7102 11.804 50.8768 10.8564L51.342 8.20318H50.457L50.7265 6.66744H51.6115L51.828 5.42758Z" fill="black"/>
<path d="M61.0989 9.36022L60.6969 11.65C60.5802 12.315 60.5221 12.8489 60.5221 13.2528H58.6595L58.6544 12.593H58.6014C58.0552 13.132 57.369 13.4008 56.5426 13.4008C55.8991 13.4008 55.4105 13.2047 55.0773 12.8121C54.7441 12.4194 54.6264 11.9418 54.7253 11.3808C54.8684 10.5637 55.3193 9.93766 56.0769 9.50151C56.835 9.06638 57.8504 8.84882 59.1236 8.84882L59.1379 8.76794C59.2337 8.2207 58.8714 7.94631 58.0491 7.94631C57.3786 7.94631 56.7285 8.11217 56.0978 8.44492L55.9404 7.12417C56.7392 6.72027 57.6471 6.51807 58.6615 6.51807C59.627 6.51807 60.3138 6.76276 60.7244 7.25215C61.134 7.74257 61.2589 8.44492 61.0989 9.36022ZM58.8459 10.8156L58.9642 10.1419C57.6497 10.1419 56.9339 10.4834 56.8136 11.1657C56.7698 11.4125 56.8101 11.605 56.9334 11.7417C57.0561 11.8788 57.2477 11.9474 57.5075 11.9474C57.7893 11.9474 58.067 11.8481 58.3405 11.6505C58.6146 11.4529 58.7828 11.1744 58.8459 10.8156Z" fill="black"/>
<path d="M61.3984 13.2536L62.183 8.78249C62.2972 8.13133 62.4031 7.42591 62.501 6.66725H64.2964L64.2271 7.59638H64.2806C64.8935 6.87816 65.6491 6.5188 66.5478 6.5188C67.284 6.5188 67.8271 6.76964 68.1746 7.26978C68.523 7.77043 68.6168 8.47585 68.4568 9.38757L67.7782 13.253H65.7L66.3312 9.65735C66.5029 8.67806 66.2278 8.18867 65.5033 8.18867C65.2089 8.18867 64.9251 8.30026 64.653 8.52551C64.382 8.74973 64.2087 9.06865 64.1369 9.48125L63.4751 13.2525H61.3984V13.2536Z" fill="black"/>
<path d="M70.3007 5.42758L72.4217 4.87573L72.1078 6.66692H73.5955L73.3265 8.20267H71.8383L71.4318 10.5196C71.3553 10.9552 71.365 11.2614 71.4618 11.4385C71.5576 11.6161 71.7507 11.7052 72.0416 11.7052C72.3096 11.7052 72.5231 11.6827 72.6841 11.6376L72.4202 13.2143C72.0717 13.3397 71.6091 13.4022 71.0328 13.4022C70.4072 13.4022 69.9288 13.2148 69.5966 12.8396C69.2649 12.4649 69.1824 11.804 69.3485 10.8564L69.8141 8.20318H68.9297L69.1992 6.66744H70.0837L70.3007 5.42758Z" fill="black"/>
<path d="M73.9141 13.3908L75.4619 4.57206C76.3229 4.44817 77.2736 4.38623 78.315 4.38623C79.6152 4.38623 80.5129 4.65191 81.0091 5.18072C81.5048 5.71056 81.6811 6.38168 81.5385 7.19358C81.3642 8.18669 80.8929 8.94689 80.1272 9.47467C79.3594 10.0014 78.3853 10.2661 77.2043 10.2661C76.9715 10.2661 76.7325 10.2482 76.488 10.2129L75.9306 13.3908H73.9141ZM77.2267 6.00286L76.7646 8.63769C76.9037 8.67301 77.137 8.69042 77.4672 8.69042C78.02 8.69042 78.479 8.56244 78.8458 8.30648C79.2117 8.05052 79.4338 7.6973 79.5128 7.24681C79.5856 6.83216 79.499 6.51017 79.254 6.28083C79.0089 6.05098 78.6273 5.93631 78.1086 5.93631C77.6954 5.93631 77.401 5.95832 77.2267 6.00286Z" fill="black"/>
<path d="M87.616 9.56403L87.2206 11.8149C87.106 12.4686 87.0494 12.9934 87.0499 13.3911H85.2178L85.2122 12.742H85.1598C84.6233 13.2718 83.9482 13.537 83.1366 13.537C82.5033 13.537 82.0229 13.3435 81.6958 12.9575C81.3677 12.571 81.2531 12.1021 81.3493 11.5503C81.49 10.7471 81.9332 10.1312 82.6786 9.70276C83.4229 9.27531 84.422 9.06082 85.6733 9.06082L85.6876 8.98147C85.7824 8.44294 85.4247 8.17367 84.6161 8.17367C83.9579 8.17367 83.318 8.33697 82.699 8.66408L82.5441 7.36638C83.3292 6.96913 84.2213 6.77051 85.2184 6.77051C86.167 6.77051 86.8426 7.01111 87.2466 7.49128C87.6511 7.973 87.7739 8.66408 87.616 9.56403ZM85.4013 10.9948L85.5174 10.3324C84.2264 10.3324 83.5213 10.6682 83.4036 11.3388C83.3608 11.582 83.4 11.7704 83.5218 11.905C83.6425 12.0397 83.831 12.1067 84.0858 12.1067C84.3629 12.1067 84.635 12.0105 84.904 11.8154C85.1735 11.6209 85.3391 11.347 85.4013 10.9948Z" fill="black"/>
<path d="M88.7225 6.91626H90.9896C91.3549 9.5644 91.5424 11.0259 91.5516 11.2998H91.5908L93.4932 6.91626H95.681L93.4729 11.0147C92.8793 12.1178 92.3637 12.9927 91.9246 13.6398C91.4864 14.2853 91.0758 14.7824 90.6916 15.1289C90.3075 15.4755 89.8983 15.7494 89.4637 15.95C89.0292 16.1507 88.5971 16.2736 88.1666 16.3176L88.0469 14.5965C88.643 14.4813 89.1361 14.2566 89.5259 13.9208C89.9172 13.5855 90.1266 13.3382 90.1541 13.1795C90.1638 13.1222 90.1485 13.007 90.1082 12.8355L88.7225 6.91626Z" fill="black"/>
<path d="M35.0076 6.55786H37.099L35.9073 13.2578H33.8164L35.0076 6.55786Z" fill="black"/>
<path d="M11.9128 4.04329C13.4147 4.04329 14.7246 4.88744 15.3971 6.12832L13.995 6.60952C13.995 6.60952 10.8541 7.60417 9.10398 9.08105C9.10398 9.08105 9.97112 7.80484 12.3152 6.08225C10.8072 6.05102 10.7776 6.00802 8.2292 6.56703C8.8095 5.09118 10.2401 4.04329 11.9128 4.04329ZM6.36704 10.1602C4.49011 12.5508 3.70703 14.555 3.70703 14.555C3.70703 14.555 5.2472 13.419 6.62535 12.3619C7.01765 12.0609 7.46243 11.7435 7.9393 11.4231C8.89713 12.5529 10.3227 13.2721 11.9133 13.2721C14.4627 13.2721 16.5847 11.1144 17.0397 8.6838L15.7446 8.78977C15.7446 8.78977 19.4801 5.66145 21.5007 4.53575C19.394 4.94938 17.7657 5.38451 16.6122 5.73722C15.7644 3.98698 13.9772 2.77783 11.9133 2.77783C9.07188 2.77783 6.75374 5.06917 6.6926 7.90876C6.68445 7.9062 6.71705 7.90978 6.71705 7.90978C6.98402 7.83249 8.27098 7.57653 8.39682 7.59393C8.39682 7.59393 6.83882 9.42249 6.36704 10.1602ZM11.9128 12.0061C10.7654 12.0061 9.7337 11.5111 9.00921 10.7253C11.4736 9.16858 14.2956 7.70758 15.0451 7.62925C14.399 8.32802 12.2449 10.5825 12.2449 10.5825C12.2449 10.5825 14.6629 10.3675 15.1505 10.3132C14.4327 11.335 13.2501 12.0061 11.9128 12.0061Z" fill="black"/>
<path d="M36.7567 2.90723L35.7734 4.70866H36.312L35.9253 5.98486L37.0634 4.27762L36.4184 4.3068L36.7567 2.90723Z" fill="#394763"/>
</svg>
