<?xml version="1.0" encoding="UTF-8"?>
<svg xmlns="http://www.w3.org/2000/svg" width="21" height="22" viewBox="0 0 21 22" fill="none">
  <path d="M16.9572 2.96289H4.0445C3.70204 2.96289 3.3736 3.09893 3.13144 3.34109C2.88928 3.58325 2.75323 3.91169 2.75323 4.25416V17.1668C2.75323 17.5093 2.88928 17.8377 3.13144 18.0799C3.3736 18.322 3.70204 18.4581 4.0445 18.4581H16.9572C17.2996 18.4581 17.6281 18.322 17.8702 18.0799C18.1124 17.8377 18.2484 17.5093 18.2484 17.1668V4.25416C18.2484 3.91169 18.1124 3.58325 17.8702 3.34109C17.6281 3.09893 17.2996 2.96289 16.9572 2.96289ZM14.8314 14.1275C14.8914 14.1875 14.939 14.2587 14.9714 14.3371C15.0039 14.4154 15.0206 14.4994 15.0206 14.5843C15.0206 14.6691 15.0039 14.7531 14.9714 14.8315C14.939 14.9099 14.8914 14.9811 14.8314 15.0411C14.7714 15.1011 14.7002 15.1486 14.6218 15.1811C14.5435 15.2136 14.4595 15.2303 14.3746 15.2303C14.2898 15.2303 14.2058 15.2136 14.1274 15.1811C14.049 15.1486 13.9778 15.1011 13.9178 15.0411L10.5008 11.6232L7.08382 15.0411C6.96267 15.1622 6.79836 15.2303 6.62703 15.2303C6.4557 15.2303 6.29139 15.1622 6.17025 15.0411C6.0491 14.9199 5.98104 14.7556 5.98104 14.5843C5.98104 14.413 6.0491 14.2486 6.17025 14.1275L9.58806 10.7105L6.17025 7.29347C6.0491 7.17233 5.98104 7.00801 5.98104 6.83669C5.98104 6.66536 6.0491 6.50105 6.17025 6.3799C6.29139 6.25875 6.4557 6.1907 6.62703 6.1907C6.79836 6.1907 6.96267 6.25875 7.08382 6.3799L10.5008 9.79772L13.9178 6.3799C14.039 6.25875 14.2033 6.1907 14.3746 6.1907C14.546 6.1907 14.7103 6.25875 14.8314 6.3799C14.9526 6.50105 15.0206 6.66536 15.0206 6.83669C15.0206 7.00801 14.9526 7.17233 14.8314 7.29347L11.4136 10.7105L14.8314 14.1275Z" fill="#425466"></path>
</svg>
